<svg width="150" height="150" viewBox="0 0 150 150" fill="none" xmlns="http://www.w3.org/2000/svg">
<mask id="mask0_1862_2422" style="mask-type:alpha" maskUnits="userSpaceOnUse" x="0" y="0" width="150" height="150">
<circle cx="75" cy="75" r="75" fill="#D9D9D9"/>
</mask>
<g mask="url(#mask0_1862_2422)">
<path d="M146.778 154.59C185.343 116.025 185.343 53.4978 146.778 14.9325C108.213 -23.6328 45.686 -23.6328 7.12071 14.9325C-31.4446 53.4978 -31.4446 116.025 7.12071 154.59C45.686 193.155 108.213 193.155 146.778 154.59Z" fill="#95C0DA"/>
<path d="M60.6025 21.7725C60.6025 21.7725 53.4077 19.9168 47.89 27.7467C42.3723 35.5767 43.0968 44.1658 37.7676 49.1129C32.4385 54.0599 27.3575 56.1638 26.4693 61.0464C25.5811 65.9289 28.9701 69.5214 26.4693 72.5283C23.9685 75.5353 15.7316 77.4208 13.3946 85.355C11.0525 93.2941 14.3621 96.3457 14.3621 96.3457C14.3621 96.3457 6.61156 101.025 5.80773 109.306C5.00389 117.588 12.5858 122.718 12.5858 122.718C12.5858 122.718 12.2583 131.868 24.0479 131.01L35.8374 130.151C35.8374 130.151 39.4795 145.107 58.2406 145.514C76.9968 145.921 83.8592 131.471 83.8592 131.471C83.8592 131.471 101.3 131.208 103.449 116.213C105.597 101.218 98.4969 96.9907 98.4969 96.9907C98.4969 96.9907 105.731 94.7082 104.198 81.3258C102.665 67.9484 95.9663 67.7103 94.9988 61.0464C94.0312 54.3825 90.399 55.9554 88.1364 49.1129C85.8787 42.2753 86.6825 27.7666 79.9045 21.579C73.1265 15.3964 62.4533 17.0885 60.6075 21.7725H60.6025Z" fill="#262628"/>
<path d="M19.3696 158.474C19.3696 158.474 19.7715 158.549 22.4212 155.924C25.0708 153.299 29.4969 147.975 29.348 147.449C29.1992 146.923 28.2862 145.836 25.9044 143.653C24.8773 142.715 22.8032 141.48 20.7788 140.383C16.7745 142.547 12.537 145.305 9.03878 148.66C-0.726332 158.023 -1.13321 165.932 4.84097 173.196C10.8152 180.461 22.8429 182.227 37.9322 184.411C53.0265 186.594 59.7152 184.411 59.7152 184.411C59.7152 184.411 61.4072 179.806 60.6083 176.06C60.6083 176.06 50.1386 170.691 41.083 166.82C32.0275 162.95 19.3696 158.474 19.3696 158.474Z" fill="#455A64"/>
<path d="M73.4455 134.543H34.3602C34.3602 134.543 27.9494 136.503 20.7744 140.383C22.8039 141.484 24.878 142.715 25.9001 143.653C28.2819 145.831 29.1899 146.923 29.3437 147.449C29.4926 147.975 25.0665 153.299 22.4168 155.924C19.7672 158.549 19.3652 158.474 19.3652 158.474C19.3652 158.474 32.0232 162.95 41.0787 166.82C50.1343 170.691 60.604 176.059 60.604 176.059L70.8405 171.092L73.4455 134.543Z" fill="#394D57"/>
<path d="M63.4755 72.5229C63.4755 71.6794 63.5003 70.6126 63.545 69.4862C59.4762 70.811 55.71 68.99 54.2016 66.8266C53.631 68.7518 52.8371 70.558 51.7306 71.8183C49.8748 73.9321 47.2003 75.118 44.1934 76.5619C45.7911 80.601 49.4431 86.1435 57.3425 85.2602C63.5946 84.5606 66.2988 80.6258 67.45 76.949C65.0484 75.6638 63.4755 74.1951 63.4755 72.5279V72.5229Z" fill="#FFCCB3"/>
<path d="M63.5454 69.4863C63.6695 66.0576 63.9225 62.0682 63.9225 62.0682L55.6708 56.7192C55.6708 56.7192 55.5964 62.1327 54.207 66.8217C55.7155 68.9851 59.4816 70.8062 63.5504 69.4813L63.5454 69.4863Z" fill="#E5906E"/>
<path d="M76.8384 80.3728C73.3749 79.4251 69.9611 78.2838 67.4553 76.9441C66.3042 80.6209 63.5999 84.5557 57.3479 85.2553C49.4484 86.1435 45.7964 80.5961 44.1987 76.5571C41.0578 78.0605 37.5497 79.8468 34.2053 83.2557C27.6456 89.9345 20.4706 112.06 19.6172 115.484L35.8428 130.141C35.8428 130.141 45.4441 137.599 59.4468 137.559C73.4494 137.52 83.8645 131.466 83.8645 131.466L92.1758 86.2031C92.1758 86.2031 83.6214 82.2286 76.8384 80.3728Z" fill="#D87F78"/>
<path d="M62.6746 33.2989C62.6746 33.2989 62.1238 36.4448 60.6898 38.5834C59.2558 40.722 57.544 41.5308 57.544 41.5308C57.544 41.5308 58.6356 53.9158 57.544 54.0299C56.4523 54.1441 55.8073 48.8745 55.8073 48.8745C55.8073 48.8745 53.1625 43.6694 50.0365 45.5649C46.9105 47.4603 47.8185 53.2311 50.5228 54.4418C53.2271 55.6525 53.9515 55.4887 53.9515 55.4887C53.9515 55.4887 54.8992 60.7385 58.4321 63.3088C61.9651 65.8791 64.6098 68.1814 68.2816 67.715C71.9535 67.2486 78.27 60.2076 79.5006 56.2926C80.7311 52.3776 80.6716 44.4286 80.4682 42.5728C80.2647 40.717 80.1853 39.2632 80.1853 39.2632C80.1853 39.2632 76.9948 41.5209 71.9535 40.4342C66.9072 39.3426 62.6796 33.289 62.6796 33.289L62.6746 33.2989Z" fill="#FFCCB3"/>
<path d="M64.0602 44.756C62.6461 44.4136 62.5667 48.1053 63.8419 48.1847C65.1122 48.2641 65.3106 45.0587 64.0602 44.756Z" fill="#191919"/>
<path d="M76.9762 44.756C75.5621 44.4136 75.4827 48.1053 76.7579 48.1847C78.0282 48.2641 78.2266 45.0587 76.9762 44.756Z" fill="#191919"/>
<path d="M66.5263 58.987C65.0178 58.6844 63.7128 58.7489 62.6758 58.9424C63.0281 60.7436 63.9808 62.7631 66.1789 63.2047C67.6179 63.4925 68.9626 63.1948 70.0889 62.6638C69.821 61.3489 69.0023 59.4832 66.5213 58.987H66.5263Z" fill="#FF888E"/>
<path d="M73.4439 59.5079C73.4042 58.7834 70.7793 57.7513 68.8045 56.9872C65.5643 55.7318 63.0337 55.5929 62.6715 55.9402C62.5078 56.094 62.3837 57.4437 62.6765 58.9422C63.7135 58.7487 65.0136 58.6842 66.527 58.9869C69.0079 59.4831 69.8267 61.3487 70.0946 62.6637C72.129 61.706 73.4737 59.9792 73.4489 59.5128L73.4439 59.5079Z" fill="#191919"/>
<path d="M60.5717 41.6103C60.0954 41.0049 62.7897 38.2014 63.4794 38.4198C64.1642 38.6431 64.184 39.3973 64.0649 40.0076C63.9458 40.6179 61.1026 42.2752 60.5767 41.6103H60.5717Z" fill="#191919"/>
<path d="M68.4219 54.402L70.4067 47.4453L71.7662 54.5509L68.4219 54.402Z" fill="#E5906E"/>
<path d="M53.1292 48.6363C52.5784 48.0111 51.7994 47.6936 51.1246 47.8821C50.0974 48.1699 49.76 49.4997 49.8692 50.3879C49.9784 51.2612 50.5341 51.8219 50.7475 52.0154" stroke="#E5906E" stroke-miterlimit="10"/>
<path d="M67.1586 140.765C67.9079 140.08 68.5579 139.366 68.5579 139.366C68.5579 139.366 69.2873 138.889 69.7041 137.708C69.8827 137.197 69.9175 136.617 69.9026 136.125C68.2056 139.42 65.7246 139.782 65.7246 139.782C65.7246 139.782 68.5777 137.619 68.9449 136.889C69.3121 136.16 69.7736 134.984 69.7736 134.984C70.2499 133.873 70.756 131.342 70.0911 131.471C69.4262 131.6 67.7689 134.885 67.4613 135.555C67.1537 136.225 63.3528 138.552 63.3528 138.552C63.3528 138.552 65.9926 135.555 66.4689 134.547C66.9453 133.54 67.898 129.546 67.2331 129.412C66.5632 129.273 65.3872 132.821 64.5635 134.155C63.7349 135.49 59.7951 138.765 59.3485 138.542C58.9019 138.319 59.0955 137.272 59.7207 135.793C60.3459 134.319 61.7303 131.928 60.8272 131.466C59.9241 131.005 58.3313 133.104 57.7607 133.833C57.1901 134.562 55.4583 137.366 54.327 137.703C53.1957 138.041 51.6029 137.326 51.6029 137.326L49.7422 143.558C49.7422 143.558 56.3267 145.846 58.7084 145.513C61.0902 145.181 65.5758 143.588 66.9701 142.283C67.6499 141.653 68.0419 140.943 68.2701 140.383C66.6773 141.802 65.4765 142.03 65.4765 142.03C65.4765 142.03 66.4143 141.44 67.1586 140.76V140.765Z" fill="#FFCCB3"/>
<path d="M65.7198 139.777C65.7198 139.777 68.2008 139.415 69.8978 136.121C69.8779 135.475 69.7638 134.979 69.7638 134.979C69.7638 134.979 69.3023 136.155 68.9351 136.885C68.568 137.614 65.7148 139.777 65.7148 139.777H65.7198Z" fill="#E5906E"/>
<path d="M67.1587 140.765C66.4094 141.45 65.4766 142.035 65.4766 142.035C65.4766 142.035 66.6774 141.807 68.2701 140.388C68.5083 139.792 68.5629 139.361 68.5629 139.361C68.5629 139.361 67.9129 140.075 67.1636 140.76L67.1587 140.765Z" fill="#E5906E"/>
<path d="M19.6068 115.489C19.6068 115.489 34.6217 123.155 41.7619 127.879C48.9071 132.602 53.3828 137.078 53.3828 137.078C53.3828 137.078 52.837 142.888 49.2644 146.521C49.2644 146.521 37.6435 145.007 27.4715 138.165C17.2995 131.322 17.1209 123.864 19.6019 115.484L19.6068 115.489Z" fill="#C06963"/>
<path d="M63.7969 154.996C63.7969 154.996 57.8624 160.628 48.4198 157.66C38.9772 154.693 45.2491 136.096 42.7185 135.798C40.1879 135.5 38.3868 143.648 38.3868 143.648C38.3868 143.648 38.3768 139.738 35.8314 139.316C33.2859 138.889 32.2885 146.888 32.6359 151.453C32.9832 156.023 36.6997 157.779 36.6997 157.779C36.6997 157.779 32.1694 155.542 31.8816 157.536C31.5889 159.536 34.189 163.228 39.275 163.59C39.275 163.59 32.75 165.828 36.8039 167.584C40.8529 169.341 44.3064 166.473 44.3064 166.473C44.3064 166.473 38.1436 169.703 43.8003 170.854C49.4519 172.005 59.0185 168.854 61.9858 163.347L63.8019 154.991L63.7969 154.996Z" fill="#DBA85E"/>
<path d="M100.322 149.751C100.322 149.751 102.455 151.81 105.041 151.403C106.752 151.135 108.444 149.736 109.392 148.823C109.511 147.007 109.442 145.513 109.442 145.513C109.442 145.513 110.087 147.166 111.377 146.52C112.667 145.875 110.489 140.908 110.489 140.908C110.489 140.908 111.739 142.645 112.424 141.717C113.109 140.789 111.377 138.73 111.377 138.73C111.377 138.73 114.806 140.75 115.818 139.316C116.825 137.882 113.883 134.369 113.883 134.369C113.883 134.369 115.014 135.093 115.58 133.724C116.145 132.349 113.401 130.141 113.401 130.141C113.401 130.141 115.962 130.488 116.031 129.402C116.106 128.315 113.56 126.479 113.56 126.479C113.56 126.479 115.133 126.152 115.495 124.991C115.858 123.829 114.324 118.302 108.633 117.657C102.942 117.012 99.3492 125.641 99.111 129.397C99.0664 130.072 99.0118 131.119 98.9473 132.429C98.9473 132.429 100.158 140.139 100.237 144.938L100.317 149.741L100.322 149.751Z" fill="white"/>
<path d="M84.9881 150.435C83.9808 140.303 83.8568 131.466 83.8568 131.466C83.8568 131.466 82.527 137.321 81.1128 139.315C79.6987 141.31 75.5703 146.004 75.5703 146.004C75.5703 146.004 81.5247 150.921 82.9735 158.474C84.0007 158.022 85.0625 157.308 85.6977 156.851C85.4347 154.633 85.1915 152.45 84.9881 150.44V150.435Z" fill="#DBA85E"/>
<path d="M120.581 114.119C118.884 108.621 116.344 104.577 116.344 104.577L88.1353 103.932C88.1353 103.932 85.6345 104.647 83.2924 109.43C80.9504 114.208 77.9633 123.299 72.2769 130.146C66.5855 136.994 62.6358 143.375 61.2515 152.093C59.8671 160.811 60.5965 166.984 64.5263 173.161C68.4562 179.339 69.5578 179.458 69.5578 179.458H76.9957C76.9957 179.458 79.2336 178.49 80.871 175.945C81.5557 174.293 84.0169 168.601 83.213 160.126C83.1585 159.566 83.0791 159.015 82.9749 158.479C81.526 150.927 75.5716 146.009 75.5716 146.009C75.5716 146.009 79.7 141.32 81.1141 139.321C82.5283 137.326 83.8581 131.471 83.8581 131.471C83.8581 131.471 83.9772 140.308 84.9894 150.44C85.1879 152.45 85.436 154.638 85.699 156.851C86.7658 165.803 88.1403 175.22 88.1403 175.22C88.1403 175.22 83.7837 178.49 83.7837 179.944C83.7837 181.398 84.8306 184.063 85.6692 184.301C85.7486 184.326 85.8726 184.345 86.0314 184.36C85.952 182.753 85.8776 179.771 86.4135 179.905C86.9742 180.043 87.0288 183.065 87.0238 184.42C87.788 184.445 88.7605 184.45 89.743 184.435C89.6636 182.847 89.5792 179.766 90.1201 179.9C90.6808 180.039 90.7354 183.06 90.7304 184.415C92.0304 184.39 93.2014 184.341 93.7076 184.296C95.0374 184.177 95.9653 172.308 95.9653 172.308C95.9653 172.308 96.5309 164.518 97.4191 156.489C98.1485 149.9 98.6596 138.418 98.9523 132.434C99.0168 131.129 99.0714 130.077 99.1161 129.402C99.3592 125.646 102.952 117.017 108.638 117.662C114.329 118.307 115.863 123.835 115.5 124.996C115.138 126.157 113.565 126.484 113.565 126.484C113.565 126.484 116.106 128.315 116.036 129.407C115.962 130.493 113.406 130.146 113.406 130.146C113.406 130.146 116.15 132.354 115.585 133.729C115.019 135.103 113.888 134.374 113.888 134.374C113.888 134.374 116.835 137.887 115.823 139.321C114.816 140.755 111.382 138.735 111.382 138.735C111.382 138.735 113.119 140.794 112.429 141.722C111.744 142.65 110.494 140.914 110.494 140.914C110.494 140.914 112.672 145.876 111.382 146.526C110.092 147.171 109.447 145.518 109.447 145.518C109.447 145.518 109.516 147.012 109.397 148.828C109.338 149.736 109.229 150.723 109.045 151.651C108.479 154.435 107.269 158.27 107.269 158.27C107.269 158.27 104.401 182.787 105.046 183.815C105.363 184.321 107.105 184.529 108.946 184.584C108.946 183.14 109.025 180.445 109.556 180.311C110.072 180.182 110.017 182.961 109.943 184.599C110.97 184.599 111.948 184.569 112.652 184.519C112.657 183.06 112.742 180.44 113.263 180.311C113.754 180.187 113.729 182.743 113.66 184.395C114.9 184.033 116.394 181.775 116.22 179.453C116.036 177.032 113.496 175.702 113.496 175.702C113.496 175.702 120.249 150.763 121.445 140.105C122.636 129.451 122.274 119.617 120.577 114.119H120.581Z" fill="#F7CF7F"/>
<path d="M109.396 148.823C108.448 149.736 106.756 151.14 105.044 151.403C102.459 151.805 100.325 149.751 100.325 149.751L100.246 144.947C100.167 140.144 98.9558 132.438 98.9558 132.438C98.6631 138.422 98.152 149.899 97.4226 156.494C96.5344 164.527 95.9688 172.313 95.9688 172.313C95.9688 172.313 100.663 167.772 103.451 164.443C106.24 161.113 107.267 158.27 107.267 158.27C107.267 158.27 108.478 154.435 109.043 151.651C109.232 150.723 109.336 149.736 109.396 148.828V148.823Z" fill="#EDE8E4"/>
<path d="M116.103 98.9999L87.6513 99.3621C87.6513 99.3621 86.5299 100.211 86.1974 101.178C86.1974 101.188 86.1925 101.198 86.1875 101.203C88.2715 102.761 92.772 104.924 101.629 104.751C109.499 104.597 114.565 102.865 117.646 101.203C117.552 100.826 117.458 100.543 117.368 100.449C116.976 100.027 116.098 98.9949 116.098 98.9949L116.103 98.9999Z" fill="#D87F78"/>
<path d="M86.1914 101.203C85.8589 102.19 85.5364 104.736 85.715 105.604C85.8986 106.478 90.8904 110.02 101.514 109.896C112.137 109.777 117.496 107.018 117.918 105.962C118.246 105.138 117.973 102.528 117.65 101.203C114.569 102.86 109.498 104.597 101.633 104.751C92.7709 104.924 88.2704 102.761 86.1914 101.203Z" fill="#C06963"/>
<path d="M105.599 101.213C104.691 101.233 104.924 104.24 104.949 106.12C104.974 108.001 105.083 109.782 106.274 109.901C107.465 110.021 107.152 107.063 107.108 104.979C107.058 102.895 107.296 101.168 105.599 101.208V101.213Z" fill="#FFA440"/>
<path d="M110.536 111.578C110.353 109.211 108.283 107.44 105.917 107.629C103.55 107.812 101.778 109.881 101.967 112.248C102.15 114.615 104.22 116.386 106.586 116.198C108.953 116.014 110.725 113.945 110.536 111.578Z" fill="#FFA440"/>
<path d="M108.843 111.707C108.734 110.273 107.479 109.202 106.045 109.316C104.611 109.425 103.539 110.68 103.653 112.114C103.767 113.548 105.017 114.62 106.451 114.506C107.885 114.397 108.957 113.141 108.843 111.707Z" fill="#E57428"/>
<path d="M113.5 63.9485C113.5 63.9485 118.343 61.4676 119.544 62.2119C120.744 62.9562 118.75 63.7501 118.75 63.7501C118.75 63.7501 122.491 64.6779 122.154 65.6058C121.816 66.5337 119.688 65.7398 119.688 65.7398C119.688 65.7398 121.742 67.0547 123.31 71.709C124.878 76.3633 126.922 85.3693 126.163 86.3865C125.404 87.4037 124.416 84.9376 124.416 84.9376C124.416 84.9376 124.749 90.8125 119.742 91.3137L113.5 63.9485Z" fill="#DBA85E"/>
<path d="M94.9976 64.9559C94.9976 64.9559 90.5566 61.81 89.2665 62.3707C87.9764 62.9364 89.8322 64.0032 89.8322 64.0032C89.8322 64.0032 85.9966 64.3853 86.2 65.3529C86.4035 66.3205 88.6215 65.8391 88.6215 65.8391C88.6215 65.8391 86.4035 66.8464 84.1805 71.2278C81.9625 75.6092 78.6529 84.2281 79.2583 85.3446C79.8636 86.461 81.1934 84.1587 81.1934 84.1587C81.1934 84.1587 80.0224 89.9244 84.905 91.1401L94.9926 64.951L94.9976 64.9559Z" fill="#DBA85E"/>
<path d="M107.185 60.5992C107.185 60.5992 107.101 54.1437 105.047 53.4986C102.993 52.8536 104.809 59.3091 104.809 59.3091C104.809 59.3091 101.861 55.5926 100.249 57.1308C98.636 58.664 103.236 61.3981 103.236 61.3981C103.236 61.3981 97.6337 60.9664 93.5153 65.2039C89.3969 69.4414 89.3125 79.1668 87.6602 84.1089C86.0079 89.051 82.3311 93.9782 82.8174 94.663C83.3036 95.3477 85.075 93.9385 85.075 93.9385C85.075 93.9385 83.259 96.8016 83.7849 97.5707C84.3109 98.3398 85.9632 96.9008 85.9632 96.9008C85.9632 96.9008 85.9235 99.4463 87.1739 100.364C88.4244 101.282 93.55 103.173 101.683 103.014C109.815 102.855 116.028 100.275 117.119 99.2627C118.211 98.2554 118.494 96.4394 118.494 96.4394C118.494 96.4394 119.059 98.0917 120.429 97.2482C121.803 96.3997 118.896 93.4374 118.896 93.4374C118.896 93.4374 120.712 94.7473 121.317 93.8591C121.922 92.971 120.429 90.9514 119.317 85.5876C118.206 80.2187 117.645 69.9922 117.119 66.5684C116.593 63.1447 111.671 60.7679 107.19 60.6042L107.185 60.5992Z" fill="#F7CF7F"/>
<path d="M126.446 69.7193C126.446 69.7193 127.622 68.712 126.933 67.6849C126.248 66.6578 117.46 71.0044 118.095 72.1308C118.735 73.2621 121.727 71.7437 123.687 71.1235C123.687 71.1235 118.279 73.9816 118.944 75.2072C119.609 76.4328 124.407 73.6541 124.407 73.6541C124.407 73.6541 119.509 76.5072 120.169 77.7924C120.824 79.0725 125.811 75.9416 125.811 75.9416C125.811 75.9416 121.162 79.7573 121.727 80.4718C122.293 81.1863 124.253 80.1146 126.709 78.4721C129.165 76.8297 129.939 76.3435 129.915 75.4652C129.885 74.5869 128.937 74.4927 128.937 74.4927C128.937 74.4927 129.771 73.4705 129.478 72.7758C129.185 72.0812 127.736 72.2002 127.736 72.2002C127.736 72.2002 128.759 71.2476 128.416 70.3941C128.074 69.5406 126.451 69.7242 126.451 69.7242L126.446 69.7193Z" fill="#FFCCB3"/>
<path d="M95.9648 85.3494C95.9648 85.3494 96.853 93.4324 103.229 93.4324C109.605 93.4324 110.93 84.7292 110.93 84.7292L95.9648 85.3494Z" fill="#DBA85E"/>
<path d="M104.24 72.5224C102.945 72.5224 102.543 74.9041 102.543 74.9041C102.543 74.9041 99.9379 74.9636 96.8119 76.8393C93.6859 78.7149 92.7382 79.0175 92.9763 80.6748C93.2195 82.3272 95.2787 90.1571 104.24 90.1571C113.201 90.1571 114.893 81.7218 114.73 80.7939C114.566 79.866 114.581 77.5042 111.38 76.353C109.698 75.7476 105.609 74.8197 105.609 74.8197C105.609 74.8197 105.351 72.5174 104.24 72.5174V72.5224Z" fill="white"/>
<path d="M104.194 81.3199C103.043 81.3199 101.048 79.5237 100.681 77.9706C100.314 76.4175 103.142 76.3579 104.194 76.3579C105.246 76.3579 108.695 76.3976 108.189 77.9706C107.682 79.5435 105.325 81.3199 104.194 81.3199Z" fill="#191919"/>
<path d="M100.924 73.8971C100.294 74.82 99.2073 72.4631 97.2126 72.607C95.213 72.7459 94.3893 74.1799 94.0667 73.8177C93.7442 73.4555 94.9549 71.2772 97.4955 71.2325C100.036 71.1928 101.673 72.8055 100.924 73.8971Z" fill="#191919"/>
<path d="M109.846 83.2601C109.394 83.2005 109.518 85.359 107.226 85.359C104.933 85.359 104.666 83.2601 104.194 83.2601C103.723 83.2601 103.47 85.359 101.207 85.359C98.9444 85.359 99.0685 83.2005 98.6219 83.2601C98.1753 83.3196 98.8055 86.2075 101.162 86.2075C103.519 86.2075 104.189 84.7338 104.189 84.7338C104.189 84.7338 104.864 86.2075 107.261 86.2075C109.657 86.2075 110.292 83.3196 109.841 83.2601H109.846Z" fill="#191919"/>
<path d="M107.512 73.897C108.152 74.8199 109.254 72.463 111.278 72.6069C113.308 72.7458 114.146 74.1798 114.474 73.8176C114.801 73.4554 113.571 71.2771 110.991 71.2324C108.41 71.1927 106.753 72.8054 107.507 73.897H107.512Z" fill="#191919"/>
</g>
</svg>
