<svg width="150" height="150" viewBox="0 0 150 150" fill="none" xmlns="http://www.w3.org/2000/svg">
<mask id="mask0_1862_2347" style="mask-type:alpha" maskUnits="userSpaceOnUse" x="0" y="0" width="150" height="150">
<circle cx="75" cy="75" r="75" fill="#D9D9D9"/>
</mask>
<g mask="url(#mask0_1862_2347)">
<circle cx="74.9995" cy="75" r="86.5942" fill="#95C0DA"/>
<path d="M135.239 137.471C135.239 137.471 147.232 127.486 141.036 119.449C141.036 119.449 136.442 72.7319 112.804 82.5508C112.804 82.5508 88.6084 48.9855 73.9634 54.2609C73.9634 54.2609 65.0214 39.4421 50.9272 50.1812C50.9272 50.1812 33.804 54.7392 31.391 71C31.391 71 14.3475 70.4421 11.3692 94.6015C11.3692 94.6015 -12.9568 138.029 7.41997 136.87C71.1518 133.225 105.811 153.196 135.246 137.471H135.239Z" fill="#C06963"/>
<path d="M88.7248 49.5583C88.7248 49.5583 91.0799 58.5076 100.449 61.8916C100.449 61.8916 86.5074 89.7829 72.5654 87.2829C72.5654 87.2829 76.3842 65.0655 68.6523 55.1887L88.7248 49.5583Z" fill="#FFCAB1"/>
<path d="M91.1596 54.58C89.3335 51.8626 88.7248 49.551 88.7248 49.551L68.6523 55.1815C70.1161 57.051 71.1596 59.3626 71.906 61.8844C71.906 61.8844 83.848 64.8409 91.1596 54.5728V54.58Z" fill="#FBB18F"/>
<path d="M97.2158 32.0004C97.2375 30.9569 97.1361 29.9569 96.9404 29.0221C96.4042 26.4351 95.1144 24.4279 93.4767 23.6815C93.0419 23.4859 92.5854 23.3627 92.1143 23.3554C89.8752 23.312 87.9259 25.5438 87.0999 28.725C86.8535 29.6743 86.7013 30.7105 86.6796 31.7975C86.5854 36.5149 88.868 40.3917 91.781 40.4424C91.8317 40.4424 91.8897 40.4351 91.9404 40.4351C94.7738 40.3482 97.1216 36.638 97.2086 32.0004H97.2158Z" fill="#FFCAB1"/>
<path d="M50.006 46.464C48.5205 48.964 50.6002 52.9495 54.6582 55.3625C58.3466 57.5582 62.3829 57.6959 64.2089 55.8263C64.3901 55.6379 64.5568 55.435 64.6944 55.2104C66.18 52.7104 64.1002 48.7249 60.0423 46.3118C58.9915 45.6886 57.9191 45.2321 56.8684 44.9422C53.8611 44.1017 51.1075 44.6162 50.006 46.464Z" fill="#FFB58C"/>
<path d="M82.8615 57.6595C86.2165 55.9131 88.731 53.203 90.2818 50.0508C92.6223 45.3117 92.76 39.5653 90.1296 34.5146L80.1513 15.3986L49.7383 31.2682L59.7165 50.3841C61.5136 53.8262 64.318 56.3841 67.5789 57.9276C72.2673 60.1522 77.9049 60.2392 82.8615 57.6522V57.6595Z" fill="#FFCAB1"/>
<path d="M76.1467 33.725C76.1467 33.725 79.2409 29.2105 83.4801 30.3337C87.7192 31.4569 83.3496 27.9207 79.9801 28.6091C76.6105 29.2975 76.0308 30.9569 76.0308 30.9569C76.0308 30.9569 75.4293 30.6888 74.9583 30.8554C73.6467 31.3265 74.7047 35.5076 76.154 33.725H76.1467Z" fill="#3B364D"/>
<path d="M65.8344 38.8483C65.8344 38.8483 60.3634 38.6961 58.7764 42.7831C57.1895 46.87 56.8996 41.2541 59.4431 38.9352C61.9866 36.6164 63.6677 37.1236 63.6677 37.1236C63.6677 37.1236 63.8054 36.4787 64.2185 36.1961C65.3706 35.4135 68.1315 38.7323 65.8344 38.8483Z" fill="#3B364D"/>
<path d="M76.0947 52.5004L81.6237 49.5584C81.6237 49.5584 82.2107 56.0366 76.0947 52.5004Z" fill="#EA344F"/>
<path d="M119.658 57.1305C118.455 50.616 100.376 29.8697 93.6655 22.3842C86.9481 14.8987 75.6655 -0.601346 64.0568 3.61605C53.3249 7.5146 45.8104 11.1885 44.9481 22.6378C44.0858 34.0871 49.1655 58.9204 47.2742 68.5001C46.651 71.645 47.209 74.6813 48.6655 77.2392C54.122 67.4131 71.9119 61.8914 71.9119 61.8914C71.6293 60.9276 71.2959 60.0001 70.9191 59.1088C69.7742 58.8334 68.6583 58.4421 67.5858 57.9349C66.3901 57.3697 65.2597 56.6668 64.209 55.8334C62.3829 57.6958 58.3467 57.5581 54.6655 55.3624C50.6075 52.9494 48.5278 48.9639 50.0133 46.4639C51.0858 44.6668 53.709 44.145 56.6003 44.8769C58.4191 50.6233 63.4481 55.1885 63.4481 55.1885C58.709 50.1233 58.3032 42.8334 58.3032 42.8334C59.5496 40.645 61.151 36.8624 61.0496 31.8987L62.6873 37.2102C62.6873 37.2102 68.6365 32.6233 66.738 25.0436C66.738 25.0436 70.622 31.2247 75.5568 30.8189L74.6148 29.6088C74.6148 29.6088 78.8901 31.4059 84.5713 29.703C84.5713 29.703 86.709 29.6088 88.3467 31.8987C89.9844 34.1885 91.4988 37.9639 91.4988 37.9639C91.4988 37.9639 89.7162 28.9711 87.7815 26.8769C88.7742 24.7102 90.3684 23.3117 92.1438 23.3479C92.6148 23.3552 93.0713 23.4784 93.5061 23.674C95.1438 24.4276 96.4264 26.4349 96.9699 29.0146C97.1655 29.9421 97.267 30.9421 97.2452 31.9929C97.1583 36.616 94.8177 40.3334 91.9844 40.4204C92.3757 43.7392 91.767 47.0871 90.3104 50.0363C90.0641 50.5363 89.7815 51.0218 89.4844 51.5001C90.209 53.1305 91.5568 55.5218 93.8177 57.7175C95.3829 56.8044 96.9916 56.3842 98.593 56.5798C103.644 57.1885 112.39 63.3479 116.963 69.5726C117.883 67.9856 120.702 62.5871 119.687 57.1088L119.658 57.1305Z" fill="#3A3649"/>
<path d="M117.679 70.6524C113.374 64.0872 103.903 57.2466 98.5699 56.6017C93.2366 55.9567 87.896 62.0654 84.0192 70.6524C82.0627 74.993 79.9902 77.0292 78.425 77.9857C78.425 77.9857 74.6206 70.6741 71.9033 61.8915C71.9033 61.8915 53.5699 67.5727 48.4105 77.6741C43.2511 87.7756 40.2148 139.08 40.2148 139.08C40.2148 139.08 66.9033 150.181 77.5699 150.558C77.5699 150.558 87.5554 151.42 104.084 150.558C120.613 149.696 135.244 137.471 135.244 137.471C136.447 128.522 121.99 77.2176 117.686 70.6524H117.679Z" fill="#20445B"/>
<path d="M97.3016 58.6308C97.49 58.5874 97.5987 58.3989 97.5552 58.2178C97.5117 58.0294 97.3233 57.9207 97.1422 57.9642C92.8088 59.0294 87.7074 68.4569 85.6204 73.2902C83.4103 78.4062 79.1712 79.7975 79.1277 79.812C78.9465 79.87 78.8451 80.0656 78.903 80.2468C78.9465 80.3917 79.0842 80.4859 79.2291 80.4859C79.2654 80.4859 79.2944 80.4859 79.3306 80.4714C79.519 80.4134 83.9103 78.9859 86.2509 73.5656C88.6277 68.0729 93.5262 59.5584 97.3088 58.6308H97.3016Z" fill="#A03B30"/>
<path d="M100.1 130.247C100.259 135.885 104.911 138.522 105.114 138.631C105.165 138.66 105.223 138.674 105.281 138.674C105.404 138.674 105.52 138.609 105.585 138.493C105.679 138.327 105.614 138.117 105.447 138.022C105.404 138.001 100.94 135.472 100.788 130.225C100.766 129.479 100.701 128.022 100.614 126.066C100.1 114.834 98.5488 80.66 101.571 77.4716C101.701 77.3339 101.694 77.1165 101.556 76.9861C101.418 76.8556 101.201 76.8629 101.071 77.0006C98.2082 80.0151 98.9546 104.827 99.9256 126.102C100.013 128.059 100.078 129.508 100.1 130.254V130.247Z" fill="#A03B30"/>
<path d="M126.962 96.2978C126.919 96.1094 126.73 96.0007 126.549 96.0442C126.361 96.0877 126.252 96.2761 126.296 96.4573C126.375 96.7833 134.158 129.044 133.694 132.95C133.252 136.696 129.926 137.95 129.788 138.001C129.607 138.066 129.52 138.262 129.586 138.443C129.636 138.58 129.767 138.667 129.912 138.667C129.948 138.667 129.991 138.667 130.028 138.646C130.187 138.588 133.89 137.196 134.383 133.022C134.861 128.993 127.296 97.6239 126.97 96.2906L126.962 96.2978Z" fill="#A03B30"/>
<path d="M108.397 140.95C108.296 141.001 98.3612 146.117 88.854 148.203C88.6656 148.247 88.5496 148.428 88.5931 148.617C88.6293 148.776 88.7743 148.885 88.9264 148.885C88.9482 148.885 88.9772 148.885 88.9989 148.877C98.5931 146.769 108.608 141.609 108.709 141.559C108.876 141.472 108.941 141.261 108.854 141.095C108.767 140.928 108.557 140.863 108.39 140.95H108.397Z" fill="#A03B30"/>
<path d="M105.282 138.326L104.84 150.493C114.978 149.754 124.325 144.848 129.905 141.268V138.326H105.289H105.282Z" fill="#FFCAB1"/>
<path d="M105.224 139.877L129.898 141.276V138.326H105.282L105.224 139.877Z" fill="#FBB18F"/>
<path d="M40.215 39.1305C40.215 39.1305 29.7077 40.5798 24.3092 44.1522C9.05559 49.2755 17.7512 59.058 18.8381 59.058C23.9686 62.196 22.128 49.8913 22.128 49.8913C22.128 49.8913 23.215 58.1522 23.7367 59.587L22.3599 60.0435C22.3599 60.0435 23.6715 62.1087 24.9686 63.2029L23.9686 63.8913C23.9686 63.8913 26.2657 66.7609 27.4106 67.1015C27.4106 67.1015 27.4106 71.058 27.0628 73.3551C26.715 75.6522 26.4903 80.2971 27.4613 81.6739C27.4613 81.6739 34.6353 101.761 33.8309 114.957C33.0266 128.152 32.4541 139.058 32.4541 139.058C32.4541 139.058 63.9613 149.5 77.5628 150.536C77.5628 150.536 80.4903 145.029 78.4251 138.486C76.3599 131.942 68.4396 121.442 68.2657 112.833C68.0918 104.225 73.9468 91.8334 73.9468 91.8334C73.9468 91.8334 76.6135 95.5363 78.4251 94.4131C78.4251 94.4131 79.541 97.1667 81.5266 95.7899C81.5266 95.7899 81.7874 97.5942 83.1642 97.3406C83.1642 97.3406 83.6787 98.8044 85.3164 97.5145C86.9541 96.2247 87.8092 92.6087 85.7439 89.1667C83.6787 85.7247 79.2005 78.0652 75.6715 73.587C72.1425 69.1087 63.2729 58.3479 61.2077 53.7899C59.693 50.4469 52.8961 52.8986 54.7077 44.1522C56.157 41.3044 50.7222 38.0436 48.9106 37.3841C48.9106 37.3841 47.4613 36.232 43.1135 36.232C40.186 37.0943 40.215 38.0436 40.215 38.0436V39.1305Z" fill="#F5EBDF"/>
<path d="M41.6414 66.9346C41.6414 66.9346 41.5544 66.8983 41.5182 66.9346C40.1776 68.2317 38.9168 68.8404 37.7428 68.7317C36.453 68.6157 35.7501 67.6447 35.7428 67.6375C36.2428 67.2172 37.3443 65.2607 36.1921 64.8766C34.9892 64.478 32.982 65.4491 32.982 65.4491C32.982 66.4273 34.2066 67.3404 35.0327 67.6302C35.0327 67.6302 35.0254 67.6375 35.0254 67.6447C35.0254 67.652 34.9312 68.3766 34.2791 68.7824C33.6776 69.1592 32.8008 69.1447 31.6776 68.7462C31.6341 68.7317 31.5834 68.7534 31.5689 68.7969C31.5544 68.8404 31.5762 68.8911 31.6196 68.9056C32.2139 69.1157 32.7501 69.2244 33.2139 69.2244C33.6776 69.2244 34.0472 69.123 34.366 68.9273C35.0617 68.4998 35.1776 67.7607 35.1921 67.6737C35.3588 67.7172 35.5037 67.7317 35.6052 67.7027C35.6052 67.7099 35.6052 67.7172 35.6052 67.7244C35.6341 67.7679 36.3588 68.7679 37.7283 68.8911C37.8225 68.8983 37.9167 68.9056 38.011 68.9056C39.1559 68.9056 40.3733 68.2824 41.6486 67.0505C41.6849 67.0143 41.6849 66.9636 41.6486 66.9273L41.6414 66.9346Z" fill="#3B364D"/>
<path d="M39.3601 55.8477C39.9398 56.5072 40.034 57.3767 39.5702 57.7898C39.1064 58.2028 38.2514 58.0072 37.6717 57.3477C37.092 56.6883 36.9977 55.8188 37.4615 55.4057C37.9253 54.9927 38.7804 55.1883 39.3601 55.8477Z" fill="#3B364D"/>
<path d="M29.6203 59.0145C29.8522 59.8624 29.5478 60.6812 28.9464 60.8479C28.3449 61.0073 27.671 60.4566 27.4391 59.6015C27.2073 58.7537 27.5116 57.9348 28.1131 57.7682C28.7145 57.6087 29.3884 58.1595 29.6203 59.0145Z" fill="#3B364D"/>
<path d="M51.3795 59.2958C51.4146 59.2405 51.4076 59.1643 51.3654 59.109C51.3233 59.0536 51.253 59.0328 51.1898 59.0536L50.1638 59.3374C51.0141 58.6037 52.5109 57.1777 52.9536 55.8626C52.9747 55.8072 52.9536 55.7449 52.9185 55.7034C52.8763 55.6618 52.8131 55.6411 52.7569 55.6549L52.012 55.821C52.5179 55.2188 53.3612 53.9452 53.5158 51.9932C53.5158 51.9309 53.4877 51.8756 53.4385 51.841C53.3823 51.8063 53.319 51.8063 53.2628 51.841L52.5109 52.277C52.9817 51.2526 53.9445 48.8576 53.5088 47.224C53.4877 47.1341 53.3963 47.0856 53.305 47.1064C53.2136 47.1271 53.1644 47.2171 53.1855 47.3071C53.7055 49.266 51.9909 52.5816 51.9768 52.6162C51.9417 52.6785 51.9557 52.7616 52.012 52.81C52.0682 52.8585 52.1455 52.8723 52.2087 52.8308L53.1504 52.284C52.8412 54.7066 51.4216 55.9664 51.4006 55.9733C51.3443 56.0218 51.3303 56.1048 51.3584 56.1741C51.3935 56.2433 51.4708 56.2779 51.5411 56.2571L52.5109 56.0425C51.759 57.7177 49.3626 59.5589 49.3415 59.5796C49.2783 59.6281 49.2572 59.7112 49.2924 59.7804C49.3275 59.8496 49.4118 59.8842 49.4891 59.8634L50.8314 59.4897C49.8405 60.791 47.6971 62.4592 47.6761 62.4799C47.6198 62.5215 47.5988 62.5976 47.6198 62.6599C47.6409 62.7291 47.7042 62.7706 47.7744 62.7706H49.0042C48.2804 63.6082 46.6641 64.3696 46.6501 64.3765C46.636 64.3765 46.622 64.3904 46.6079 64.4042C46.5728 64.4388 42.9115 67.699 40.1216 69.3672C37.9502 70.6616 35.6874 70.7308 34.816 70.6893L35.3711 70.1771C35.4203 70.1286 35.4344 70.0594 35.4133 69.9971C35.3852 69.9348 35.329 69.8933 35.2587 69.8933C35.2236 69.9002 35.1955 69.8933 35.1673 69.8933C32.1877 69.8933 27.8237 67.3668 27.7816 67.3391C27.7043 67.2906 27.5989 67.3183 27.5567 67.3945C27.5075 67.4706 27.5356 67.5744 27.6129 67.616C27.7886 67.7198 31.8153 70.0456 34.8511 70.2048L34.317 70.6962C34.2678 70.7378 34.2538 70.807 34.2749 70.8693C34.2959 70.9316 34.3451 70.9731 34.4154 70.98C34.4506 70.98 34.7387 71.0146 35.1884 71.0146C36.2636 71.0146 38.3015 70.8277 40.3114 69.6303C43.031 68.0105 46.5447 64.9026 46.8328 64.6465C47.0717 64.5357 48.8918 63.6497 49.4962 62.6737C49.5313 62.6253 49.5313 62.5561 49.4962 62.5076C49.468 62.4522 49.4118 62.4245 49.3486 62.4245H48.2593C49.0183 61.8085 50.7189 60.3549 51.3795 59.2751V59.2958Z" fill="#CEC3B3"/>
<path d="M30.6499 64.4929C30.7079 64.4204 30.7006 64.3117 30.6209 64.2538C30.5484 64.1958 30.4398 64.2103 30.3818 64.2827C30.3673 64.3045 28.8455 66.2393 31.0847 68.4277C31.1209 68.4639 31.1644 68.4784 31.2079 68.4784C31.2513 68.4784 31.2948 68.4639 31.3311 68.4277C31.3963 68.3625 31.3963 68.2538 31.3311 68.1813C29.3238 66.2103 30.5992 64.5654 30.6571 64.4929H30.6499Z" fill="#CEC3B3"/>
<path d="M41.6276 66.1886C41.6276 66.1886 41.6566 66.1886 41.6711 66.1886C41.7508 66.1886 41.816 66.1379 41.8378 66.0582C42.5624 63.1669 40.2363 61.7538 40.2073 61.7393C40.1276 61.6886 40.0189 61.7176 39.9754 61.7973C39.9247 61.877 39.9537 61.9857 40.0334 62.0365C40.1204 62.0872 42.1638 63.3408 41.5044 65.9785C41.4827 66.0727 41.5406 66.1669 41.6276 66.1886Z" fill="#CEC3B3"/>
<path d="M32.3381 89.6015C32.3381 89.5073 32.2511 89.4348 32.1569 89.4348C32.0627 89.4348 31.9902 89.5218 31.9902 89.616C32.0482 90.9711 33.8381 93.6088 33.9105 93.7247C33.9468 93.7754 33.9975 93.7972 34.0555 93.7972C34.0917 93.7972 34.1207 93.7899 34.1497 93.7682C34.2294 93.7175 34.2511 93.6088 34.1931 93.529C34.1714 93.5001 32.3815 90.8551 32.3308 89.6015H32.3381Z" fill="#CEC3B3"/>
<path d="M36.236 91.5652C36.207 91.471 36.1128 91.4203 36.0186 91.4492C35.9244 91.4782 35.8737 91.5724 35.9027 91.6666C36.3157 93.0797 37.8737 94.3913 37.9389 94.4492C37.9679 94.4782 38.0114 94.4927 38.0476 94.4927C38.0983 94.4927 38.149 94.471 38.178 94.4275C38.236 94.355 38.2288 94.2463 38.1563 94.1884C38.1418 94.1739 36.6128 92.884 36.2288 91.5724L36.236 91.5652Z" fill="#CEC3B3"/>
<path d="M39.6194 90.9929C39.5904 90.8987 39.4962 90.848 39.4092 90.8769C39.315 90.9059 39.2643 91.0001 39.2933 91.0871C39.6411 92.3117 40.7788 93.674 40.8295 93.732C40.8658 93.7755 40.9092 93.79 40.96 93.79C40.9962 93.79 41.0397 93.7755 41.0687 93.7465C41.1411 93.6885 41.1484 93.5798 41.0904 93.5001C41.0759 93.4856 39.9527 92.1378 39.6194 90.9784V90.9929Z" fill="#CEC3B3"/>
<path d="M41.6842 88.4492C41.6118 88.5144 41.6118 88.6231 41.6842 88.6956C42.8292 89.9057 43.0683 90.7898 43.0683 90.797C43.09 90.8767 43.1552 90.9275 43.235 90.9275C43.2494 90.9275 43.2639 90.9275 43.2784 90.9275C43.3726 90.9057 43.4234 90.8115 43.4016 90.7173C43.3944 90.6811 43.148 89.7391 41.9306 88.4565C41.8654 88.3912 41.7567 88.384 41.6842 88.4565V88.4492Z" fill="#CEC3B3"/>
<path d="M27.577 78.7972C27.5625 78.703 27.4755 78.6378 27.3813 78.6523C27.2871 78.6668 27.2219 78.7538 27.2364 78.848C27.2509 78.9712 27.6567 81.8914 28.8161 83.5146C29.932 85.0799 31.0335 88.3697 31.048 88.4059C31.0697 88.4784 31.1422 88.5219 31.2147 88.5219C31.2364 88.5219 31.2509 88.5219 31.2726 88.5146C31.3596 88.4856 31.4103 88.3842 31.3813 88.2972C31.3378 88.1596 30.2581 84.9277 29.106 83.319C27.9973 81.7683 27.5915 78.8335 27.5842 78.8045L27.577 78.7972Z" fill="#CEC3B3"/>
<path d="M54.9599 126.355L55.8657 127.036C55.9236 127.08 55.9961 127.08 56.0541 127.044C56.1121 127.007 56.1483 126.942 56.1338 126.87C55.5541 123.094 56.5034 118.652 56.8367 117.275L57.6628 118.833C57.699 118.899 57.7642 118.935 57.8439 118.92C57.9164 118.906 57.9744 118.855 57.9889 118.783C58.641 114.957 56.9671 110.268 56.3077 108.616L57.7135 109.71C57.7642 109.754 57.8367 109.761 57.9019 109.725C57.9599 109.696 57.9961 109.631 57.9961 109.565C57.8077 106.696 56.6628 103.717 56.228 102.667L57.757 103.304C57.815 103.333 57.8874 103.319 57.9309 103.275C57.9816 103.232 58.0034 103.167 57.9889 103.109C56.9671 98.4494 54.1628 89.6957 54.1338 89.6088C54.1048 89.5146 54.0106 89.4711 53.9164 89.5001C53.8222 89.5291 53.7787 89.6233 53.8077 89.7175C53.8367 89.8044 56.5106 98.1523 57.5831 102.862L55.9671 102.188C55.9019 102.16 55.8294 102.174 55.7787 102.225C55.728 102.275 55.7135 102.355 55.7497 102.413C55.7642 102.449 57.315 105.833 57.6265 109.196L56.0106 107.942C55.9454 107.891 55.8584 107.891 55.8005 107.942C55.7352 107.993 55.7207 108.08 55.7497 108.145C55.7787 108.203 58.2497 113.688 57.7352 118.196L56.9526 116.71C56.9236 116.645 56.8584 116.602 56.7787 116.623C56.7063 116.631 56.6483 116.681 56.6338 116.746C56.6193 116.797 55.199 122.007 55.757 126.5L54.728 125.725C54.67 125.681 54.5831 125.681 54.5251 125.725C54.4671 125.768 54.4381 125.848 54.4599 125.92C54.4744 125.971 56.1193 130.949 59.9816 137.544C60.0106 137.602 60.0686 137.631 60.1338 137.631C60.1628 137.631 60.1918 137.623 60.2207 137.609C60.3005 137.558 60.3294 137.457 60.286 137.377C57.17 132.058 55.5034 127.804 54.9816 126.355H54.9599Z" fill="#CEC3B3"/>
<path d="M70.4689 86.5145C69.1718 84.8623 68.3023 84.6159 66.3385 84.384C66.266 84.3768 66.2008 84.413 66.1646 84.471C66.1283 84.529 66.1356 84.6087 66.1791 84.6594L66.5849 85.1666C65.2878 84.5362 62.382 83.3405 58.7588 83.1956C53.8892 83.0072 51.4544 82.5507 51.4327 82.5507C51.3385 82.529 51.2515 82.5942 51.2298 82.6884C51.208 82.7826 51.2733 82.8695 51.3675 82.8913C51.3892 82.8913 53.8457 83.355 58.7443 83.5434C63.5849 83.7319 67.1138 85.8333 67.1501 85.8478C67.2225 85.8913 67.3095 85.8768 67.3675 85.8116C67.4254 85.7463 67.4254 85.6521 67.3675 85.5869L66.7153 84.7681C68.3167 84.9782 69.0631 85.2753 70.2008 86.7174C71.4472 88.2971 73.7805 91.8913 73.8095 91.9275C73.8457 91.9782 73.8965 92.0072 73.9544 92.0072C73.9834 92.0072 74.0196 92 74.0486 91.9782C74.1283 91.9275 74.1501 91.8188 74.0994 91.7391C74.0776 91.7029 71.7298 88.1014 70.4762 86.5072L70.4689 86.5145Z" fill="#CEC3B3"/>
<path d="M84.8813 93.6524C84.7871 93.6524 84.7073 93.7321 84.7073 93.8263C84.7073 95.6234 83.0552 97.2176 83.0407 97.2321C82.9682 97.2973 82.9682 97.406 83.0407 97.4785C83.0769 97.5147 83.1204 97.5292 83.1639 97.5292C83.2073 97.5292 83.2508 97.5147 83.2798 97.4785C83.3523 97.406 85.0552 95.7683 85.0552 93.8263C85.0552 93.7321 84.9755 93.6524 84.8813 93.6524Z" fill="#CEC3B3"/>
<path d="M83.1643 92.3189C83.0701 92.3189 82.9976 92.3914 82.9904 92.4856C82.9469 94.0363 81.4179 95.6668 81.4034 95.6885C81.3382 95.7537 81.3382 95.8624 81.4034 95.9349C81.4396 95.9639 81.4759 95.9784 81.5193 95.9784C81.5628 95.9784 81.6136 95.9639 81.6425 95.9276C81.7078 95.8552 83.2802 94.1813 83.3237 92.5001C83.3237 92.4059 83.2512 92.3262 83.157 92.3262L83.1643 92.3189Z" fill="#CEC3B3"/>
<path d="M80.455 91.674C80.3608 91.6595 80.281 91.7392 80.2738 91.8334C80.1506 93.7465 78.4477 94.2392 78.3753 94.261C78.2811 94.29 78.2303 94.3842 78.2521 94.4711C78.2738 94.5436 78.3463 94.5943 78.4187 94.5943C78.4332 94.5943 78.4477 94.5943 78.4622 94.5943C78.4839 94.5943 80.4767 94.0219 80.6144 91.8552C80.6144 91.761 80.5492 91.6813 80.455 91.674Z" fill="#CEC3B3"/>
<path d="M76.3883 90.8623C76.3013 90.8913 76.2506 90.9927 76.2796 91.0797C76.91 92.9347 75.7868 93.6449 75.7434 93.6739C75.6637 93.7246 75.6347 93.8261 75.6854 93.913C75.7144 93.9637 75.7724 93.9927 75.8303 93.9927C75.8593 93.9927 75.8883 93.9855 75.9173 93.971C75.9318 93.9637 77.3303 93.1014 76.6057 90.971C76.5767 90.884 76.4752 90.8333 76.3883 90.8623Z" fill="#CEC3B3"/>
<path d="M65.1422 138.558C65.1712 138.471 65.1277 138.369 65.0407 138.34C64.9538 138.312 64.8523 138.355 64.8233 138.442C64.7364 138.681 62.8016 144.297 64.8306 148.442C64.8596 148.5 64.9248 148.536 64.9828 148.536C65.0117 148.536 65.0335 148.536 65.0552 148.522C65.1422 148.478 65.1784 148.377 65.1349 148.29C63.1712 144.268 65.1204 138.609 65.1422 138.551V138.558Z" fill="#CEC3B3"/>
<path d="M20.5024 111.013H18.9807C18.9807 111.013 8.99515 128.375 7.27051 136.81C7.27051 136.81 25.6401 136.89 32.3212 139.02L33.1111 124.89L20.5024 111.013Z" fill="#20445B"/>
<path d="M32.0581 127.145C19.4784 124.985 19.2103 114.246 19.2031 113.797C19.2031 113.609 19.0436 113.456 18.8552 113.456C18.6668 113.456 18.5146 113.616 18.5146 113.804C18.5146 113.92 18.7828 125.565 31.9422 127.826C31.9639 127.826 31.9784 127.826 32.0002 127.826C32.1668 127.826 32.3118 127.71 32.3407 127.543C32.3697 127.355 32.2465 127.181 32.0581 127.145Z" fill="#A03B30"/>
<path d="M20.6371 111.072C20.6371 111.072 26.7241 98.4925 28.5284 94.7751C30.34 91.0577 31.2096 88.3476 31.2096 88.3476C31.2096 88.3476 32.5719 93.9708 34.0647 93.6302C34.0647 93.6302 35.84 95.8114 38.0502 94.3186C38.0502 94.3186 39.5937 95.2389 40.956 93.6302C40.956 93.6302 42.5212 93.6302 43.2241 90.7606C43.2241 90.7606 45.3038 90.1882 44.3908 86.9708C43.4705 83.7606 40.1154 77.5577 40.1154 77.5577C40.1154 77.5577 45.7603 70.5433 48.4052 69.2317C51.0502 67.9201 52.869 67.8911 53.9632 68.3041C53.9632 68.3041 61.7168 67.2027 63.0937 68.3041C64.4705 69.4056 64.8183 70.8983 64.0139 72.0505C64.0139 72.0505 64.7531 73.9998 64.4415 75.6085C64.4415 75.6085 65.5937 77.7896 64.5212 79.3983C64.5212 79.3983 64.7096 82.6085 62.869 83.4128C62.869 83.4128 56.2096 82.3766 51.3908 86.0505C46.5719 89.7244 34.2531 124.13 33.2386 124.942C33.2386 124.942 22.4705 124.84 20.6299 111.065L20.6371 111.072Z" fill="#FFCAB1"/>
<path d="M20.6377 111.072C22.471 124.847 33.2464 124.949 33.2464 124.949C33.3189 124.891 33.442 124.673 33.6087 124.318C22.4493 122.869 20.6377 111.072 20.6377 111.072Z" fill="#FF8751"/>
<path d="M43.2316 90.7531C42.5287 93.6227 40.9635 93.6227 40.9635 93.6227C39.5939 95.2314 38.0577 94.3111 38.0577 94.3111C35.8476 95.8039 34.0722 93.6227 34.0722 93.6227C32.5794 93.9705 31.2171 88.3401 31.2171 88.3401C31.2171 88.3401 30.7751 89.7024 29.8838 91.8184L31.391 90.1227C31.391 90.1227 32.0649 94.543 34.2461 94.485C34.2461 94.485 35.5577 96.3111 37.891 95.2894C37.891 95.2894 39.92 96.2314 41.1447 94.485C41.1447 94.485 43.0577 93.9415 43.8331 91.4415C43.8331 91.4415 45.5142 89.9053 44.4055 86.9633C45.3258 90.1734 43.2389 90.7531 43.2389 90.7531H43.2316Z" fill="#FBB18F"/>
<path d="M53.9412 68.1299C53.7383 68.1661 49.0499 69.0284 47.7311 70.7168C47.6731 70.7893 47.6876 70.898 47.7601 70.956C47.7891 70.9777 47.8325 70.9922 47.8688 70.9922C47.9195 70.9922 47.9702 70.9705 48.0064 70.927C49.2456 69.34 53.9557 68.4777 54.0064 68.4705C54.1006 68.456 54.1659 68.3618 54.1441 68.2676C54.1224 68.1734 54.0354 68.1081 53.9412 68.1299Z" fill="#FBB18F"/>
<path d="M63.9928 72.2169C64.087 72.2314 64.1739 72.1735 64.1957 72.0793C64.2102 71.9851 64.1522 71.8981 64.058 71.8764C63.9783 71.8619 62.1377 71.5285 60.5725 71.8764C60.4783 71.8981 60.4203 71.9923 60.4421 72.0793C60.4638 72.159 60.529 72.2169 60.6087 72.2169C60.6232 72.2169 60.6305 72.2169 60.645 72.2169C62.1377 71.8836 63.971 72.2169 63.9928 72.2169Z" fill="#FBB18F"/>
<path d="M61.0071 75.4343C60.9129 75.4487 60.8477 75.5357 60.8694 75.6299C60.8839 75.7169 60.9564 75.7748 61.0361 75.7748C61.0433 75.7748 61.0578 75.7748 61.0651 75.7748C61.8984 75.6372 64.4129 75.7748 64.4419 75.7748C64.5216 75.7748 64.6158 75.7096 64.6231 75.6154C64.6231 75.5212 64.5578 75.4415 64.4636 75.4343C64.3622 75.4343 61.8839 75.2893 61.0144 75.4343H61.0071Z" fill="#FBB18F"/>
<path d="M64.5223 79.224C64.5223 79.224 62.0585 79.253 61.044 79.224C60.9498 79.224 60.8701 79.2965 60.8701 79.3907C60.8701 79.4849 60.9426 79.5646 61.0368 79.5646C61.3774 79.5719 61.8846 79.5791 62.3991 79.5791C63.4281 79.5791 64.5078 79.5646 64.5295 79.5646C64.6237 79.5646 64.7034 79.4849 64.6962 79.3907C64.6962 79.2965 64.6165 79.224 64.5223 79.224Z" fill="#FBB18F"/>
<ellipse cx="65.2817" cy="44.0681" rx="1.44928" ry="2.17391" transform="rotate(-25.2752 65.2817 44.0681)" fill="#3B364D"/>
<ellipse cx="81.0083" cy="36.6426" rx="1.44928" ry="2.17391" transform="rotate(-25.2752 81.0083 36.6426)" fill="#3B364D"/>
<path d="M73.3747 41.2052L79.0635 46.4082L74.9758 48.7465L73.3747 41.2052Z" fill="#F28F8F"/>
<path d="M42.7529 42.0292C42.7529 42.0292 43.6611 43.9451 44.5645 44.9278C46.1925 46.6986 46.8858 47.9072 49.2747 48.1887C50.6869 48.355 51.7507 48.3043 52.8979 47.464C53.8182 46.7899 54.3471 44.9278 54.3471 44.9278" stroke="#CEC3B3" stroke-width="0.5"/>
</g>
</svg>
