<svg width="150" height="150" viewBox="0 0 150 150" fill="none" xmlns="http://www.w3.org/2000/svg">
<mask id="mask0_1862_2277" style="mask-type:alpha" maskUnits="userSpaceOnUse" x="0" y="0" width="150" height="150">
<circle cx="75" cy="75" r="75" fill="#D9D9D9"/>
</mask>
<g mask="url(#mask0_1862_2277)">
<circle cx="79.8844" cy="83.3722" r="91.0465" fill="#95C0DA"/>
<path d="M20.0166 124.056C20.0166 124.056 -3.68345 123.331 -2.00903 106.252C-0.334609 89.1728 20.0096 64.789 37.1724 59.3402C54.3352 53.8914 93.1538 91.6146 119.84 83.2425C146.526 74.8704 177.572 115.684 150.537 124.405C123.503 133.126 122.707 150.568 96.9421 145.336C71.177 140.103 38.2677 121.963 20.0166 124.056Z" fill="#455A64"/>
<path d="M48.0354 130.399C48.0354 130.399 1.17958 120.848 -2.00879 92.5987C-2.00879 92.5987 32.4075 93.5266 48.0354 130.406V130.399Z" fill="#303F46"/>
<path d="M41.2541 122.599C41.2541 122.599 7.63315 88.5869 20.7145 63.3381C20.7145 63.3381 48.789 83.2567 41.2541 122.599Z" fill="#303F46"/>
<path d="M68.0381 148.594C68.0381 148.594 91.4102 163.65 113.213 156.324C135.015 148.998 137.282 127.894 150.538 124.405C150.538 124.405 153.154 84.7914 133.619 79.3216L68.5683 121.566L68.0381 148.601V148.594Z" fill="#703A19"/>
<path d="M133.619 79.3215L68.5681 121.566L68.4844 125.863C68.4844 125.863 94.5495 142.377 103.445 139.935C112.34 137.494 127.166 91.7959 130.305 89.8773C133.445 87.9587 144.329 87.7843 149.261 103.133C149.261 103.133 149.261 103.133 149.261 103.14C147.398 92.7866 143.143 81.9936 133.612 79.3215H133.619Z" fill="#602F13"/>
<path d="M70.6396 122.961C70.6396 122.961 72.921 138.826 75.2513 140.689V136.733C75.2513 136.733 76.6466 143.94 79.3187 146.152V143.48C79.3187 143.48 81.4117 151.622 84.9001 153.477V151.036C84.9001 151.036 88.9676 156.498 92.1071 158.012V155.57C92.1071 155.57 95.9443 162.198 102.572 162.429L101.177 160.105C101.177 160.105 102.921 162.317 107.575 158.71C112.228 155.103 114.754 138.708 115.919 134.173L116.644 137.891C116.644 137.891 118.647 114.645 118.402 108.247C118.402 108.247 99.7885 125.452 91.0676 121.615C82.3466 117.777 70.6466 122.954 70.6466 122.954L70.6396 122.961Z" fill="#F5EBDF"/>
<path d="M99.6488 138.247C112.577 134.759 118.402 108.254 118.402 108.254C118.402 108.254 99.7883 125.459 91.0674 121.622C82.3465 117.784 70.6465 122.961 70.6465 122.961C70.6465 122.961 70.8767 124.58 71.2744 126.833C71.2744 126.833 90.8023 140.633 99.6558 138.24L99.6488 138.247Z" fill="#E2D2C0"/>
<path d="M47.1053 54.8265C47.1053 54.8265 47.6844 63.366 42.5146 69.0591C42.5146 69.0591 51.6333 80.8009 58.7914 81.0381C65.9426 81.2684 66.6402 73.4823 66.6402 73.4823C66.6402 73.4823 63.4798 59.2916 66.6402 51.6591L47.1053 54.8265Z" fill="#DE9595"/>
<path d="M47.1052 54.8262C47.1052 54.8262 47.2378 56.7309 46.8262 59.3472C46.8262 59.3472 53.8308 63.9309 65.2378 60.7495C65.2378 57.5053 65.5797 54.2193 66.6401 51.6658L47.1052 54.8332V54.8262Z" fill="#CC8383"/>
<path d="M74.8736 38.2845C75.0271 37.3635 75.0759 36.4705 75.0271 35.6194C74.8945 33.2682 74.0224 31.3217 72.6829 30.4426C72.3271 30.2124 71.9434 30.0449 71.5247 29.9752C69.5573 29.6403 67.5341 31.3496 66.3829 34.0496C66.041 34.8589 65.7689 35.7519 65.6085 36.7077C64.9038 40.8659 66.4038 44.5845 68.9643 45.024C69.0131 45.031 69.062 45.024 69.1108 45.038C71.6294 45.338 74.1899 42.3659 74.8806 38.2915L74.8736 38.2845Z" fill="#ECC1BA"/>
<path d="M31.2685 44.7937C29.622 46.803 30.9336 50.5984 34.1917 53.2705C37.1569 55.6984 40.708 56.3542 42.5638 54.9449C42.7522 54.8053 42.9266 54.6519 43.0731 54.4635C44.7196 52.4542 43.408 48.6588 40.1499 45.9867C39.3057 45.296 38.4127 44.7519 37.5266 44.3542C34.9871 43.21 32.4824 43.3007 31.2615 44.7937H31.2685Z" fill="#ECC1BA"/>
<path d="M58.7922 59.0405C61.9875 57.9381 64.5689 55.88 66.355 53.3056C69.048 49.4265 69.934 44.3753 68.2806 39.5684L62.0015 21.3591L33.041 31.3428L39.3201 49.5521C40.4503 52.8311 42.5922 55.4614 45.2643 57.2544C49.1154 59.8358 54.0759 60.666 58.7922 59.0405Z" fill="#ECC1BA"/>
<path d="M56.0377 37.0076C56.0377 37.0076 59.3726 33.4355 62.9656 34.9844C66.5586 36.5402 63.1679 32.8355 60.1051 32.996C57.0354 33.1565 56.3028 34.5448 56.3028 34.5448C56.3028 34.5448 55.8075 34.2309 55.3679 34.3146C54.147 34.5588 54.5307 38.389 56.0447 37.0076H56.0377Z" fill="#263238"/>
<path d="M46.2557 40.1615C46.2557 40.1615 41.4417 39.3033 39.5022 42.701C37.5627 46.0987 38.051 41.1033 40.5975 39.394C43.151 37.6847 44.5673 38.3545 44.5673 38.3545C44.5673 38.3545 44.7766 37.8033 45.1743 37.608C46.2975 37.0708 48.2929 40.3638 46.2487 40.1615H46.2557Z" fill="#263238"/>
<path d="M54.334 53.8987L59.5735 51.9382C59.5735 51.9382 59.127 57.6941 54.334 53.8987Z" fill="#F4EFEC"/>
<path d="M38.3152 42.8544C38.3152 42.8544 40.0105 37.9846 47.1407 36.5893C54.264 35.1939 61.0663 31.4404 60.1942 27.6032C60.1942 27.6032 61.164 34.0567 63.6896 34.2311C66.2152 34.4055 68.3152 40.866 69.0338 42.952C69.0338 42.952 68.35 34.2451 67.5826 31.9706C67.5826 31.9706 70.0175 29.7102 71.9919 30.0939C71.9919 30.0939 72.8082 20.8846 67.9245 13.9986C63.0407 7.11251 59.5733 8.766 59.5733 8.766C59.5733 8.766 48.4175 1.96367 41.0012 8.24274C41.0012 8.24274 28.4431 9.11483 28.0105 23.766C28.0105 23.766 20.6012 36.7567 31.7082 44.3544C31.7082 44.3544 34.5477 43.4055 35.9431 44.3544C35.9431 44.3544 38.8663 52.6567 41.4128 53.5637L38.3082 42.8544H38.3152Z" fill="#263238"/>
<path d="M44.93 63.9171C44.93 63.9171 40.4858 64.2938 40.0183 67.6706C40.0183 67.6706 33.3904 71.1589 31.6462 77.0892C29.902 83.0194 14.301 111.168 17.4405 123.837C17.4405 123.837 20.016 129.07 37.3243 139.535C45.9963 147.091 63.7532 149.302 69.1044 150.698V94.0078L65.9439 66.352C65.9439 66.352 52.1648 73.538 44.923 63.9171H44.93Z" fill="#C06963"/>
<path d="M53.1479 110.571L41.1758 103.127L64.3107 123.945L68.0362 148.594L68.5665 121.566L53.1479 110.571Z" fill="#A85C57"/>
<path d="M41.8174 74.0266C41.8174 74.0266 54.5918 70.4545 69.1034 87.1986C69.1034 87.1986 58.3872 66.3173 41.8174 74.0266Z" fill="#A85C57"/>
<path d="M131.301 68.9821C131.301 68.9821 140.253 73.8658 143.127 81.0379C146.001 88.21 144.613 127.531 144.613 127.531C144.613 127.531 142.569 129.324 141.474 130.615C141.474 130.615 140.594 108.184 140.162 104.347C140.162 104.347 141.467 105.659 141.641 107.222C141.641 107.222 142.339 103.963 140.42 99.7914C140.42 99.7914 142.164 100.07 142.771 101.291C142.771 101.291 141.55 89.3472 139.897 87.1635L127.688 76.6984C127.688 76.6984 128.713 69.6239 131.294 68.9751L131.301 68.9821Z" fill="#ECC1BA"/>
<path d="M139.527 83.5704C139.527 83.5704 141.306 82.1332 141.146 79.6844C140.985 77.1727 139.694 77.0262 139.694 77.0262C139.694 77.0262 138.983 73.7402 136.101 73.6425C136.101 73.6425 133.778 69.903 129.104 71.5146C128.113 73.7751 127.688 76.7053 127.688 76.7053L134.532 82.5727C134.532 82.5727 138.829 81.0658 139.527 83.5774V83.5704Z" fill="#DE9595"/>
<path d="M53.1484 110.57C53.1484 110.57 75.3624 127.217 85.367 131.731C96.9484 136.963 103.276 137.431 108.272 129.987C113.274 122.543 127.339 84.289 131.065 83.1239C134.783 81.9588 138.16 80.5634 139.555 82.5448C139.555 82.5448 142.228 79.6355 139.555 77.1937C139.555 77.1937 138.279 74.682 135.837 74.0192C135.837 74.0192 133.395 71.382 130.137 72.0797C126.879 72.7774 117.809 83.0123 114.09 89.403C110.372 95.8006 99.5368 112.545 95.5322 111.61C91.5275 110.675 69.1112 92.3053 69.1112 92.3053C69.1112 92.3053 55.5903 104.166 53.1554 110.563L53.1484 110.57Z" fill="#ECC1BA"/>
<path d="M54.4529 111.498L70.1367 95.9748L74.3576 98.8004L68.1413 92.9678C68.1413 92.9678 56.9227 101.703 53.1553 110.57L54.4529 111.498Z" fill="#A85C57"/>
<path d="M94.4229 113.459L94.374 113.417C94.374 113.417 94.388 113.431 94.4229 113.459Z" fill="#F5EBDF"/>
<path d="M90.3642 36.1498C90.3642 36.1498 81.6433 38.3474 77.4572 37.6009C73.2712 36.8474 70.2363 42.5405 67.2154 51.9033C64.2014 61.2661 64.3061 66.4986 61.2014 70.1614C58.0968 73.8242 56.9456 76.2661 58.5642 80.1033C60.1898 83.9405 68.3875 94.0567 73.2712 97.894C78.1549 101.731 86.7014 112.022 90.3642 113.94V111.673C90.3642 111.673 92.4573 115.336 96.2945 115.161L94.3759 113.417C94.3759 113.417 97.5154 116.557 103.097 110.627C108.678 104.696 117.574 84.4637 119.841 83.2428C119.841 83.2428 124.55 86.3823 127.864 84.6381C131.178 82.894 128.562 75.7428 130.132 72.08C131.701 68.4172 134.492 59.9405 132.574 53.3614C130.655 46.7893 114.957 31.4056 106.236 32.9893C97.5154 34.58 96.2247 34.9847 90.3642 36.1498Z" fill="#F5EBDF"/>
<path d="M74.3584 98.8012C74.3584 98.8012 81.1259 95.1035 77.5468 85.2524C77.5468 85.2524 81.991 88.3012 83.7352 92.9687C85.4793 97.6361 91.2352 99.2059 94.898 98.2501C98.5607 97.2943 101.198 96.1361 105.189 89.264C109.179 82.3919 114.084 80.3966 114.084 75.8338C114.084 75.8338 115.479 82.1966 119.84 83.2431C124.2 84.2896 127.689 67.5454 127.689 67.5454L126.872 58.8245L114.084 57.757L105.119 80.3687L97.9189 87.8966L80.6863 83.571C80.6863 83.571 80.6514 76.7896 76.3189 79.3222L71.9863 81.8477L74.3514 98.8012H74.3584Z" fill="#E2D2C0"/>
<path d="M127.863 84.6381C131.177 82.894 128.561 75.7428 130.131 72.08C131.701 68.4172 134.491 59.9405 132.573 53.3614C130.654 46.7893 114.956 31.4056 106.235 32.9893C99.9564 34.1335 97.5285 34.6637 94.4727 35.3056L94.4308 35.4521C94.4308 35.4521 92.3378 52.1754 93.2657 55.6707C94.1936 59.173 104.659 67.1963 105.594 70.4475C106.522 73.7056 105.084 79.7893 103.508 81.1498C103.508 81.1498 101.735 83.3475 95.5262 81.8963L87.3215 83.9335C87.3215 83.9335 82.4866 84.8544 81.3634 81.7219C80.2401 78.5893 77.568 74.2847 80.2401 69.7498C82.9122 65.2149 88.1448 59.7661 88.2634 54.8195C88.382 49.8661 88.6401 40.2381 86.1843 37.0288C83.3587 37.5381 79.7308 38.0056 77.4494 37.594C73.2634 36.8405 70.2285 42.5335 67.2076 51.8963C64.1936 61.2591 64.2983 66.4916 61.1936 70.1544C58.089 73.8172 56.9378 76.2591 58.5564 80.0963C60.182 83.9335 68.3797 94.0498 73.2634 97.887C73.6053 98.1591 73.968 98.4591 74.3448 98.794C74.3448 98.794 77.2122 96.2614 77.5611 92.0754C77.9099 87.8893 75.9494 83.1242 75.9494 83.1242C75.9494 83.1242 82.0959 87.1707 84.189 90.9591C86.282 94.7544 89.0727 96.2614 94.075 96.2614C99.0773 96.2614 101.631 92.5428 103.494 89.4033C105.356 86.2637 110.24 81.9591 111.747 78.4707C113.261 74.9823 114.07 71.2637 114.07 71.2637C114.07 71.2637 115.682 81.4916 119.826 83.2428C119.826 83.2428 124.535 86.3823 127.849 84.6381H127.863Z" fill="#703A19"/>
<path d="M75.9615 83.1313C75.9615 83.1313 71.6987 79.6708 71.001 75.8336C70.3034 71.9964 69.9545 44.7592 76.3173 42.2475C76.3173 42.2475 74.2871 46.4196 73.4778 51.3313C72.6545 56.3126 69.5848 72.7289 75.9615 83.1313Z" fill="#602F13"/>
<path d="M104.295 38.243C104.295 38.243 107.455 36.1988 110.365 45.3592C113.274 54.5197 114.083 71.2639 114.083 71.2639C114.083 71.2639 109.737 43.5872 104.295 38.243Z" fill="#602F13"/>
<path d="M59.1411 73.1268L59.0155 73.1058C57.662 75.3593 57.4109 77.3826 58.562 80.1035C60.1876 83.9407 68.3853 94.057 73.269 97.8942C73.6109 98.1663 73.9737 98.4663 74.3504 98.8012C74.3504 98.8012 74.6365 98.55 75.0411 98.0686C53.8806 78.1849 59.1411 73.1268 59.1411 73.1268Z" fill="#602F13"/>
<path d="M87.3213 83.9407C87.3213 83.9407 89.0515 91.5733 93.8934 91.5733C98.7352 91.5733 98.2957 82.5454 98.2957 82.5454L92.8259 80.3687L87.3213 83.9407Z" fill="#C04336"/>
<path d="M103.863 78.3244C103.772 78.15 103.563 78.0872 103.396 78.1779C103.221 78.2686 103.158 78.4779 103.249 78.6453C103.87 79.8384 103.731 79.9779 102.398 81.2965L102.021 81.6733C101.024 82.6709 96.6003 81.6105 93.4956 80.55C93.4956 80.536 93.5026 80.5151 93.4956 80.5012L92.8398 77.5919V77.4663C92.8398 77.4663 92.8398 77.4454 92.8398 77.4314C99.377 75.2826 99.3352 69.1919 97.9608 67.336C96.5654 65.4593 90.8515 66.764 90.7747 66.7849C89.3096 66.9314 85.2212 67.4895 84.5515 69.2965C83.7561 71.4453 85.4096 77.2081 92.1422 77.5151C92.1422 77.55 92.1282 77.5849 92.1422 77.6267V77.6616L92.1212 80.55C92.1212 80.6267 92.1491 80.7035 92.198 80.7593C89.3863 82.4407 85.2422 84.4221 84.0561 83.6547L83.6096 83.3686C82.0259 82.357 81.8654 82.2523 82.2212 80.9546C82.2701 80.7663 82.1654 80.5779 81.977 80.5291C81.7956 80.4733 81.6003 80.5849 81.5515 80.7733C81.0561 82.5663 81.6073 82.9221 83.2329 83.9616L83.6724 84.2477C83.9584 84.436 84.3352 84.5128 84.7747 84.5128C87.2305 84.5128 91.584 81.9663 92.9724 81.1081C94.4515 81.6244 97.9747 82.7616 100.403 82.7547C101.324 82.7547 102.091 82.5872 102.517 82.1616L102.893 81.7919C104.268 80.4314 104.735 79.9779 103.87 78.3244H103.863Z" fill="#263238"/>
<path d="M80.6723 57.6596C80.7909 58.4898 80.3654 59.2433 79.7235 59.334C79.0816 59.4247 78.4607 58.8247 78.3421 57.9945C78.2235 57.1642 78.6491 56.4108 79.2909 56.3201C79.9328 56.2294 80.5537 56.8294 80.6723 57.6596Z" fill="#262628"/>
<path d="M102.008 55.6504C102.029 56.4876 101.513 57.1853 100.864 57.1992C100.215 57.2132 99.671 56.5434 99.65 55.7062C99.6291 54.869 100.145 54.1713 100.794 54.1574C101.443 54.1434 101.987 54.8132 102.008 55.6504Z" fill="#262628"/>
<ellipse cx="44.8166" cy="43.8513" rx="1.04651" ry="1.74419" transform="rotate(-19.1477 44.8166 43.8513)" fill="#263238"/>
<ellipse cx="44.8166" cy="43.8513" rx="1.04651" ry="1.74419" transform="rotate(-19.1477 44.8166 43.8513)" fill="#263238"/>
<ellipse cx="44.8166" cy="43.8513" rx="1.04651" ry="1.74419" transform="rotate(-19.1477 44.8166 43.8513)" fill="#263238"/>
<ellipse cx="59.4679" cy="38.9678" rx="1.04651" ry="1.74419" transform="rotate(-19.1477 59.4679 38.9678)" fill="#263238"/>
<ellipse cx="59.4679" cy="38.9678" rx="1.04651" ry="1.74419" transform="rotate(-19.1477 59.4679 38.9678)" fill="#263238"/>
<ellipse cx="59.4679" cy="38.9678" rx="1.04651" ry="1.74419" transform="rotate(-19.1477 59.4679 38.9678)" fill="#263238"/>
<path d="M52.5677 42.6732L56.9546 48.54L51.702 49.9474L52.5677 42.6732Z" fill="#F28F8F"/>
</g>
</svg>
