<svg width="150" height="150" viewBox="0 0 150 150" fill="none" xmlns="http://www.w3.org/2000/svg">
<mask id="mask0_1945_2945" style="mask-type:alpha" maskUnits="userSpaceOnUse" x="0" y="0" width="150" height="150">
<circle cx="75" cy="75" r="75" fill="#D9D9D9"/>
</mask>
<g mask="url(#mask0_1945_2945)">
<circle cx="80.9534" cy="80.9525" r="91.2698" fill="#95C0DA"/>
<path d="M28.2469 137.754C19.3498 132.084 18.0355 129.917 7.39845 120.112C-5.57027 108.158 14.708 89.0389 22.9964 88.1754C22.9964 88.1754 27.0385 55.7609 40.7901 63.2633C40.7901 63.2633 47.4616 38.1191 67.8848 46.94C67.8848 46.94 87.8825 22.8914 125.291 73.8484C125.291 73.8484 146.523 29.8325 162.7 123.362C162.7 123.362 140.149 147.835 106.961 152.146C89.0911 154.467 78.454 155.396 55.9032 149.825C44.5579 147.022 38.2918 144.155 28.2469 137.754Z" fill="#455A64"/>
<path d="M78.5647 75.3652H111.922V28.6351L78.5647 28.6351V75.3652Z" fill="#262628"/>
<path d="M135.225 102.445C139.995 97.2226 129.773 72.9289 122.321 61.0004C118.583 55.0162 111.487 58.4845 111.868 65.9448C112.281 73.8258 121.337 85.2067 121.741 94.7146C123.456 102.556 128.432 109.881 135.225 102.445Z" fill="#FFCCB3"/>
<path d="M129.487 74.6591C127.186 69.548 124.622 64.6829 122.321 61.0083C118.583 55.0242 111.487 58.4924 111.868 65.9527C112.194 72.2305 118.011 80.7305 120.567 88.7385C122.757 83.667 126.162 79.0004 129.487 74.6591Z" fill="#FFCCB3"/>
<path d="M130.019 71.6906C126.804 62.4287 122.908 58.3573 118.868 58.135C114.828 57.9208 110.646 62.8017 110.868 67.0557C111.09 71.2779 113.495 76.397 116.019 81.7462C120.273 80.8493 128.844 76.0557 130.019 71.6906Z" fill="#20445B"/>
<mask id="mask1_1945_2945" style="mask-type:luminance" maskUnits="userSpaceOnUse" x="110" y="58" width="21" height="24">
<path d="M130.021 71.6906C126.806 62.4287 122.909 58.3573 118.87 58.135C114.83 57.9208 110.648 62.8017 110.87 67.0557C111.092 71.2779 113.497 76.397 116.021 81.7462C120.275 80.8493 128.846 76.0557 130.021 71.6906Z" fill="white"/>
</mask>
<g mask="url(#mask1_1945_2945)">
<path d="M127.85 62.7622C127.239 61.9368 125.795 62.2939 125.287 63.1828C124.779 64.0717 124.969 65.1987 125.303 66.1748C125.636 67.151 126.104 68.1034 126.128 69.1352C126.168 70.7304 125.128 72.1828 125.017 73.7701C124.914 75.2542 125.707 76.7622 126.985 77.5241C128.263 78.286 129.969 78.2542 131.223 77.4606" stroke="#95C0DA" stroke-miterlimit="10"/>
<path d="M109.954 75.4526C109.779 74.0399 109.613 72.6034 109.867 71.2066C110.121 69.8097 110.875 68.4288 112.129 67.7701C113.382 67.1113 115.168 67.3891 115.906 68.6034C116.295 69.2462 116.367 70.0399 116.771 70.6748C117.287 71.4685 118.279 71.905 118.629 72.7859C118.898 73.4526 118.708 74.2383 118.319 74.8415C117.93 75.4447 117.359 75.9129 116.803 76.3653C114.422 78.3018 112.033 80.2304 109.652 82.1669" stroke="#95C0DA" stroke-miterlimit="10"/>
</g>
<path opacity="0.5" d="M120.693 71.6513C117.685 68.3576 115.685 64.3576 113.828 60.3417C111.994 62.1116 110.74 64.683 110.859 67.056C111.082 71.2782 113.486 76.3973 116.01 81.7465C118.804 81.1592 123.439 78.8894 126.645 76.1671C124.415 75.0322 122.391 73.5084 120.685 71.6513H120.693Z" fill="#20445B"/>
<path d="M118.258 118.619H69.2734V134.476H118.258V118.619Z" fill="#0E90CA"/>
<path d="M68.9873 62.0238L77.1302 89.5159L68.2969 115.889C68.2969 115.889 84.0112 134 120.273 117.651L111.368 89.3174L118.868 58.1349C95.5429 52.8095 87.2493 55.1587 68.9873 62.0238Z" fill="#20445B"/>
<mask id="mask2_1945_2945" style="mask-type:luminance" maskUnits="userSpaceOnUse" x="68" y="55" width="53" height="70">
<path d="M68.9854 62.0238L77.1283 89.5159L68.2949 115.889C68.2949 115.889 84.0092 134 120.271 117.651L111.366 89.3174L118.866 58.1349C95.541 52.8095 87.2473 55.1587 68.9854 62.0238Z" fill="white"/>
</mask>
<g mask="url(#mask2_1945_2945)">
<path d="M97.9222 60.8174C97.1047 60.7698 96.3428 61.3571 95.9539 62.0793C95.565 62.8015 95.4698 63.6428 95.4142 64.4682C95.3666 65.1269 95.3428 65.8015 95.573 66.4206C95.8031 67.0396 96.3428 67.5872 97.0016 67.619C97.7079 67.6587 98.3031 67.1349 98.9619 66.8888C100.263 66.3888 101.724 66.9841 102.914 67.7222C104.105 68.4603 105.24 69.3809 106.621 69.6031C108.287 69.873 110.073 68.9523 110.819 67.4365C111.565 65.9206 111.2 63.9364 109.962 62.7857C108.724 61.6269 106.859 61.365 105.557 60.2777C103.994 58.9761 103.557 56.5079 104.581 54.746" stroke="#95C0DA" stroke-miterlimit="10"/>
<path d="M74.6446 88.7302C74.1922 87.6588 74.9938 86.381 76.0573 85.9207C77.1208 85.4524 78.3509 85.5873 79.4938 85.7857C80.6446 85.9841 81.8192 86.2381 82.9541 85.9762C83.9382 85.754 84.8351 85.1588 85.843 85.0873C87.0811 85 88.2716 85.7461 88.97 86.7619C89.6763 87.7778 89.9541 89.0318 90.0652 90.2699C90.6208 96.381 86.9303 102.651 81.3192 105.135" stroke="#95C0DA" stroke-miterlimit="10"/>
<path d="M119.04 103.611C116.5 102.476 113.262 103.651 111.739 105.976C110.215 108.302 110.286 111.476 111.604 113.929C112.913 116.381 115.318 118.143 117.945 119.072" stroke="#95C0DA" stroke-miterlimit="10"/>
</g>
<path opacity="0.5" d="M115.13 109.857C108.376 106.238 102.051 101.833 96.2334 96.8572C90.4873 91.9365 85.2413 86.4365 80.535 80.5159C78.1381 77.5 75.8524 74.373 73.5826 71.2619C72.3842 69.6191 71.2334 67.9445 70.2175 66.1905L77.1302 89.5238L68.2969 115.897C68.2969 115.897 84.0112 134.008 120.273 117.659L118.337 111.492C117.257 110.968 116.194 110.429 115.138 109.865L115.13 109.857Z" fill="#20445B"/>
<path d="M81.9961 37.4841L87.1231 55.4841L82.5913 57.4524L86.3056 61.9048C90.3453 66.8571 98.0199 66.5397 101.639 61.2619C103.774 58.1508 105.544 55.5397 105.544 55.5397L101.718 54.7381L93.7659 36.5L82.004 37.4841H81.9961Z" fill="#FFCCB3"/>
<path d="M86.1944 51.4524C88.0753 51.7857 90.0118 51.6825 91.9087 51.6032C93.4801 51.5397 95.0674 51.5476 96.5912 51.119C97.6864 50.8095 98.615 50.2619 99.4563 49.5476L93.7658 36.5L82.0039 37.4841L85.9642 51.3968C86.0436 51.4127 86.115 51.4444 86.2023 51.4524H86.1944Z" fill="#CC8383"/>
<path d="M29.5994 115.143C25.0914 114.643 15.4724 113.627 12.4248 97.9206C12.0121 95.8015 8.90095 95.9761 8.78984 98.1269C8.28984 107.746 11.2025 119.69 27.4486 123.27" fill="#805644"/>
<path d="M26.7354 115.675C24.5131 115.786 22.1957 115.762 20.029 115.214C16.2909 114.278 12.9576 112.024 10.1719 109.326C12.3227 115.5 17.2671 121.024 27.4497 123.27L29.529 115.405C28.6004 115.524 27.6719 115.619 26.7354 115.667V115.675Z" fill="#764935"/>
<path d="M101.543 123.508C104.082 122.31 126.995 114.69 126.995 114.69C125.392 109.579 121.844 109.405 118.265 111.548C118.265 111.548 105.098 112.968 103.86 112.992C101.551 113.048 98.8125 111.389 98.8125 111.389" fill="#794D3B"/>
<path d="M39.3764 109.095L83.3049 94.7144C83.3049 94.7144 89.5827 84.7303 90.3129 85.2858C91.0351 85.8414 110.805 97.3176 110.805 97.3176C110.805 97.3176 113.519 110.762 112.122 113.667C107.646 122.984 97.1144 129.778 79.9081 133.302C77.1303 133.873 26.8764 139.357 23.7732 136.175C20.6621 132.992 16.7097 115.897 39.3764 109.095Z" fill="#805644"/>
<path d="M99.5763 116.341C91.9969 120.682 83.6954 123.659 75.1954 125.619C66.6239 127.595 57.8303 128.563 49.0525 128.913C39.8065 129.27 30.4493 128.897 21.4493 126.611C21.0287 131.055 22.4731 134.841 23.7747 136.174C26.8858 139.357 77.1319 133.873 79.9096 133.301C97.1239 129.77 107.648 122.984 112.124 113.667C112.791 112.27 112.513 108.452 112.045 104.857C109.735 110.04 104.322 113.635 99.5763 116.349V116.341Z" fill="#764935"/>
<path d="M35.2341 113.357C52.2182 113.603 55.5674 138.143 42.1388 139.436C49.7261 139.04 51.5991 140.928 51.5991 145.881C51.5991 145.881 26.242 146.262 23.5753 143.889C15.4166 136.627 18.1706 113.119 35.2341 113.365V113.357Z" fill="#805644"/>
<path d="M33.1954 136.865C30.3462 134.246 27.9891 130.992 26.3542 127.492C24.9415 124.468 24.0446 121.159 24.251 117.818C17.4891 124.945 17.6875 138.651 23.5764 143.889C26.2431 146.262 51.6002 145.881 51.6002 145.881C51.6002 145.183 51.5605 144.548 51.4732 143.968C44.8066 143.556 38.1796 141.437 33.1954 136.865Z" fill="#764935"/>
<path d="M35.2344 113.357C48.5915 113.548 53.5122 128.77 48.4725 135.889" stroke="#654232" stroke-linecap="round" stroke-linejoin="round"/>
<path d="M88.4412 74.6905C89.0126 72.8889 90.4888 70.4604 92.2348 69.5715C93.9809 68.6905 100.163 67.5953 103.021 67.881C105.878 68.1667 109.346 70.8016 110.37 71.8651C111.394 72.9286 110.878 93.127 110.806 97.3175C110.743 101.508 91.4094 93.9048 89.7825 91.1667C88.1555 88.4286 88.4412 74.6985 88.4412 74.6985V74.6905Z" fill="#805644"/>
<path d="M107.854 72.1112C109.838 72.3493 118.496 71.8255 121.615 71.5715C123.488 76.3731 121.544 80.7699 117.893 82.7699C116.711 83.4207 110.703 87.0715 110.703 87.0715" fill="#805644"/>
<path d="M122.353 74.9207C122.512 73.8731 122.639 72.4207 122.21 71.3254C121.242 71.4048 119.163 71.4286 117.758 71.9048C119.297 73.4524 120.639 74.5397 122.345 74.9207H122.353Z" fill="#383A39"/>
<path d="M122.353 74.9208C122.496 76.4446 121.988 79.278 120.099 79.2304C115.988 79.1272 114.456 78.6748 114.004 77.9605" stroke="#383A39" stroke-linecap="round" stroke-linejoin="round"/>
<path d="M106.442 74.5396C106.885 74.5396 107.244 74.1807 107.244 73.738C107.244 73.2953 106.885 72.9364 106.442 72.9364C106 72.9364 105.641 73.2953 105.641 73.738C105.641 74.1807 106 74.5396 106.442 74.5396Z" fill="#383A39"/>
<path d="M73.0419 149.952C65.2086 152.936 56.2721 155.555 53.5737 155.516C50.8752 155.476 45.4705 154.627 45.0498 148.722C44.407 139.73 51.2721 138.246 56.526 138.349C64.4308 138.5 68.2483 138.055 68.2483 138.055C76.8038 140.04 76.0419 148.809 73.0419 149.952Z" fill="#494D61"/>
<path d="M68.6911 139.127C72.0165 138.42 81.6911 133.428 83.1197 140.444C84.4054 146.785 75.0482 147.468 70.7625 148.873C62.4451 151.595 60.2705 140.912 68.699 139.127H68.6911Z" fill="#FFCCB3"/>
<path d="M71.1055 135.889C93.9229 129.778 104.367 123.214 125.717 111.278C136.621 105.182 153.709 126.206 137.907 135.452C115.288 145.96 108.788 145.539 75.9388 147.524L71.1055 135.889Z" fill="#C06963"/>
<path d="M139.812 125.063C137.518 126.889 134.939 128.285 132.24 129.412C126.788 131.69 120.867 132.841 115.002 133.365C108.748 133.92 102.423 133.484 96.2563 132.309C93.5737 131.801 90.9309 131.143 88.3198 130.365C83.2404 132.325 77.6848 134.127 71.1055 135.889L75.9388 147.524C108.796 145.539 115.288 145.96 137.907 135.452C144.121 131.809 145.248 126.349 143.661 121.436C142.51 122.785 141.145 123.984 139.804 125.055L139.812 125.063Z" fill="#A85C57"/>
<path d="M116.24 150.802C121.581 151.357 133.89 151.834 136.486 151.095C139.081 150.357 144.081 148.127 142.946 142.31C141.216 133.461 134.2 133.818 129.16 135.286C121.573 137.5 117.771 138.064 117.771 138.064C111.859 139.453 111.001 150.889 116.247 150.802H116.24Z" fill="#494D61"/>
<path d="M119.81 139.532C127.128 140.635 125.159 149.889 116.866 149.214C100.969 147.913 107.008 141.389 111.85 139.453C112.897 139.032 118.485 139.334 119.802 139.532H119.81Z" fill="#FFCCB3"/>
<path d="M115.096 138.056C92.152 132.46 83.1044 123.508 61.4933 112.064C50.4536 106.222 33.8425 127.619 49.8505 136.508C72.7076 146.508 81.6441 148.079 114.533 149.318L115.096 138.056Z" fill="#C06963"/>
<path d="M81.5806 141.365C74.4933 138.334 67.5727 134.834 61.1679 130.516C55.7076 126.834 50.6441 122.556 46.2949 117.603C42.0489 123.429 41.2791 131.754 49.8346 136.508C69.3187 145.032 78.6997 147.429 101.43 148.722C94.6838 146.667 88.0489 144.135 81.5727 141.365H81.5806Z" fill="#A85C57"/>
<path d="M125.011 103.071C120.884 103.048 116.622 102.484 112.805 100.873C109.186 99.3492 105.956 97.0476 102.424 95.3571C106.979 99.0238 121.17 109.246 132.233 105.103C134.027 104.429 135.154 103.23 135.662 101.809C132.17 102.667 128.583 103.103 125.003 103.079L125.011 103.071Z" fill="#B9652D"/>
<path d="M132.235 105.095C119.195 109.984 101.822 94.9127 100.973 94.135C101.496 88.2937 105.592 88.1111 105.592 88.1111C112.608 91.3413 120.758 91.3175 124.758 91.3413C136.004 91.4048 139.362 102.421 132.235 105.095Z" fill="#FFCCB3"/>
<path d="M121.07 91.2775C122.507 91.3331 123.769 91.3331 124.769 91.341C126.777 91.3569 128.539 91.714 130.031 92.3172" stroke="#CC8383" stroke-linecap="round" stroke-linejoin="round"/>
<path d="M106.838 88.4206C107.045 86 105.434 83.3174 105.005 82.3095C104.473 81.0714 104.402 79.6428 104.807 78.3651C104.426 77.6905 103.656 77.4206 102.91 77.6111C102.434 78.4841 101.981 79.3809 101.695 80.3333C101.41 81.2857 101.33 82.3254 101.648 83.2698C99.1478 81.3412 97.8462 79.9047 95.8939 77.2698C95.3462 76.4047 93.6478 77.4762 94.2034 78.3492C95.3859 80.3174 96.1955 81.8571 97.6478 83.627C95.5288 81.6428 94.4256 80.1905 92.5367 78.246C92.0288 77.5714 90.6637 78.373 91.1955 79.2063C92.632 81.9762 94.1082 83.4206 96.2193 85.7143C94.2431 84.2301 92.4256 82.0873 90.7669 80.6111C89.9097 80.2619 88.9891 81.2301 89.4891 82.1984C89.6637 82.5317 93.1796 87.0952 94.7907 88.5159C93.3462 87.6587 92.5526 87.127 91.251 86.3095C90.3224 86.0555 90.1478 87.2778 90.5288 87.7222C91.0129 88.2936 97.6478 94.1349 100.989 94.119" fill="#FFCCB3"/>
<path d="M98.7727 114.659L101.312 118.413C102.479 118.825 114.979 122.206 114.979 122.206C119.09 121.468 122.543 123.508 122.233 128.857C122.233 128.857 97.0187 128.254 94.0346 127.905C92.1616 127.683 85.3203 117.667 85.3203 117.667" fill="#805644"/>
<path d="M109.7 125.397C102.152 125.095 94.1758 124.222 87.4219 120.627C89.5965 123.595 92.8266 127.754 94.025 127.897C97.0092 128.246 122.223 128.849 122.223 128.849C122.311 127.389 122.104 126.191 121.7 125.214C117.708 125.492 113.7 125.556 109.708 125.397H109.7Z" fill="#764935"/>
<path d="M122.225 128.849C122.225 128.849 97.0109 128.246 94.0268 127.897C92.1538 127.675 85.3125 117.659 85.3125 117.659" stroke="#654232" stroke-linecap="round" stroke-linejoin="round"/>
<path d="M98.7715 114.659L101.311 118.413C101.819 118.595 104.51 119.341 107.359 120.127" stroke="#654232" stroke-linecap="round" stroke-linejoin="round"/>
<path d="M56.0045 105.055C51.2347 99.8331 58.3379 73.4839 68.2982 65.4284C72.6236 61.9284 77.322 62.8331 75.5601 70.0871C73.5442 78.349 70.9093 90.9681 68.4649 99.4125C66.7506 107.254 62.7902 112.492 56.0045 105.055Z" fill="#FFCCB3"/>
<path d="M62.4654 100.103C60.9257 98.1505 59.5447 96.0791 58.5844 93.7775C57.632 91.4918 57.1638 89.0394 57.1955 86.5712C57.2114 85.5553 57.3384 84.5632 57.505 83.5791C54.3781 92.7537 53.3622 102.166 56.013 105.063C61.0765 110.611 64.5606 109.103 66.7193 104.73C65.2034 103.285 63.7669 101.754 62.4733 100.111L62.4654 100.103Z" fill="#FFCCB3"/>
<path d="M74.2333 81.833C75.527 77.9283 78.4794 74.8013 79.2651 71.5632C81.0349 64.3013 73.8286 59.2536 68.9952 62.0156C65.2016 64.1822 61.7889 68.9759 59.0508 74.6663C60.8603 77.9124 70.5825 83.4362 74.2333 81.8251V81.833Z" fill="#20445B"/>
<mask id="mask3_1945_2945" style="mask-type:luminance" maskUnits="userSpaceOnUse" x="59" y="61" width="21" height="22">
<path d="M74.2333 81.8332C75.527 77.9284 78.4794 74.8014 79.2651 71.5634C81.0349 64.3014 73.8286 59.2538 68.9952 62.0157C65.2016 64.1824 61.7889 68.9761 59.0508 74.6665C60.8603 77.9126 70.5825 83.4364 74.2333 81.8253V81.8332Z" fill="white"/>
</mask>
<g mask="url(#mask3_1945_2945)">
<path d="M67.0746 61.452C68.4159 61.0948 69.9 61.825 70.6222 62.9996C71.3444 64.1821 71.3682 65.7059 70.8841 66.9996C70.4 68.2932 69.4555 69.3805 68.3762 70.2456C65.3921 72.6345 61.2095 73.4361 57.5508 72.317" stroke="#95C0DA" stroke-miterlimit="10"/>
<path d="M77.5597 82.9444C76.0756 83.0634 74.5359 82.6983 73.3295 81.8174C72.1232 80.9364 71.2899 79.5317 71.2264 78.0396C71.1629 76.5475 71.9168 75.0237 73.2105 74.2777C74.4962 73.5317 76.274 73.6586 77.3692 74.6745C78.1153 75.3729 78.4962 76.3888 78.6153 77.4047C78.7343 78.4205 78.6153 79.4444 78.4883 80.4602" stroke="#95C0DA" stroke-miterlimit="10"/>
</g>
<path opacity="0.5" d="M67.2571 76.0315C67.1222 73.4997 67.0032 70.8965 67.3603 68.3807C67.654 66.2854 68.2492 64.2537 68.7254 62.1981C65.0428 64.4362 61.7254 69.1267 59.0508 74.6822C60.1222 76.6108 63.9873 79.341 67.7174 80.9045C67.4952 79.2854 67.3524 77.6584 67.2651 76.0394L67.2571 76.0315Z" fill="#20445B"/>
<path d="M56.0042 105.055C61.7581 113.286 90.1629 113.675 91.4407 113.357C93.4169 107.825 91.2661 104.5 91.2661 104.5C83.147 102.611 74.1073 96.8729 69.655 95.0555C57.155 89.9444 51.1788 98.1428 56.0121 105.055H56.0042Z" fill="#FFCCB3"/>
<path d="M67.607 105.564C65.7498 103.889 64.0197 102.071 62.4641 100.103C60.9958 98.2381 59.6863 96.2699 58.7339 94.0953C54.226 95.8016 52.9482 100.683 56.0038 105.056C59.1308 109.532 68.9641 111.691 77.4879 112.675C73.9482 110.651 70.6228 108.278 67.607 105.564Z" fill="#FFCCB3"/>
<path d="M97.1651 103.079C98.2127 102.698 100.895 101.484 100.824 98.8333C100.8 98.0635 99.8635 97.6905 99.3318 98.254C98.9349 98.6746 98.4032 99.0952 97.5619 99.4206C95.8079 100.095 91.0698 101.175 90.9746 103.944L97.1571 103.079H97.1651Z" fill="#FFCCB3"/>
<path d="M85.3863 113.397C85.3863 113.397 88.6244 113.706 91.2434 113.817C93.8069 113.929 100.561 113.405 100.958 113.278C101.355 113.151 103.712 111.206 103.958 111.048C104.95 110.405 104.418 108.952 103.616 109.183C103.418 109.238 101.196 110.516 100.688 110.635C100.18 110.762 96.5847 110.365 96.5847 110.365C96.5847 110.365 100.394 109.889 100.958 109.825C101.529 109.762 104.212 108.294 104.497 108.056C104.918 107.698 104.831 106.214 104.188 106.159C103.823 106.127 100.585 107.103 100.585 107.103L96.9339 106.77L100.585 106.365C102.14 106 102.918 106.032 104.41 105.54C105.045 105.206 104.95 104.151 104.402 103.81C105.005 103.508 104.95 101.992 103.847 101.778C100.489 101.135 97.4894 100.944 96.4101 101.135C95.2196 101.341 87.4498 103.183 85.672 103.492C82.8942 103.976 81.8148 112.921 85.3863 113.381V113.397Z" fill="#FFCCB3"/>
<path d="M99.957 101.222C98.33 101.064 97.0443 101.04 96.4173 101.151C96.1316 101.199 95.457 101.341 94.584 101.54" stroke="#CC8383" stroke-linecap="round" stroke-linejoin="round"/>
<path d="M104.41 103.825C104.41 103.825 100.18 103.627 99.7272 103.738C99.2669 103.841 95.5605 104.587 95.5605 104.587" stroke="#CC8383" stroke-linecap="round" stroke-linejoin="round"/>
<path d="M91.5588 70.1349C88.0667 69.246 79.8127 81.8174 80.2175 85.1508C80.6223 88.4841 84.9953 93.3968 85.0667 95.4841C85.1381 97.5714 93.3762 96.1587 92.8207 91.5793C92.3445 87.6746 89.5111 74.1587 91.5508 70.1349H91.5588Z" fill="#9C6752"/>
<path d="M85.2014 70.5636C84.7649 71.3414 74.7887 62.4366 75.2332 55.0716C75.63 48.4287 76.5665 28.4763 76.5665 28.4763H84.13V53.3811C84.13 53.3811 84.1855 59.389 84.7411 62.2779C85.6617 67.0319 85.2014 70.5636 85.2014 70.5636Z" fill="#262628"/>
<path d="M102.343 10.4526C89.3989 5.33353 81.4704 12.4605 78.0735 21.0399C74.6767 29.6192 76.5338 38.7938 89.4783 43.9208C102.423 49.0399 108.034 43.2224 111.423 34.643C114.82 26.0637 115.28 15.5796 102.343 10.4526Z" fill="#262628"/>
<path d="M103.622 17.0478C92.4395 12.6192 85.876 19.6986 82.4871 28.2462C79.1062 36.7938 78.8284 44.7065 90.011 49.1351C101.193 53.5637 106.408 47.6113 109.797 39.0557C113.178 30.5081 114.805 21.4764 103.614 17.0478H103.622Z" fill="#FFCCB3"/>
<path d="M89.1532 24.4844C87.4389 27.786 84.2167 26.4764 82.0977 25.5875C83.1691 22.7225 84.4786 19.4685 86.3913 17.0796C88.304 14.6907 90.8992 12.7542 93.8834 12.0637C98.804 10.9209 103.844 13.2701 108.05 16.0637C108.867 16.6114 93.8992 15.3336 89.1532 24.4923V24.4844Z" fill="#262628"/>
<path d="M84.9551 27.8971C84.1218 22.6828 78.9155 23.3733 77.6853 27.7622C76.352 32.532 78.6932 33.6749 81.2805 34.7146" fill="#FFCCB3"/>
<path d="M81.2188 26.3336C81.7505 27.0003 81.9092 27.8812 81.9251 28.7384C81.9489 29.8416 81.7822 30.9527 81.4172 31.9923" stroke="#CC8383" stroke-linecap="round" stroke-linejoin="round"/>
<path d="M81.7667 27.5481C80.9413 27.8656 80.2587 28.5481 79.9492 29.3735" stroke="#CC8383" stroke-linecap="round" stroke-linejoin="round"/>
<path d="M107.829 36.2704C107.567 35.0879 106.733 33.6355 104.297 33.4053" stroke="#262628" stroke-width="2" stroke-miterlimit="10" stroke-linecap="round"/>
<path d="M90.1211 30.548C91.0259 29.7464 92.5497 29.056 94.6608 30.2941" stroke="#262628" stroke-width="2" stroke-miterlimit="10" stroke-linecap="round"/>
<path d="M86.1447 28.635C85.5098 30.381 84.6368 30.5318 84.6368 30.5318L84.3828 18.0873L88.1844 19.4524C88.1844 19.4524 87.5574 24.7143 86.1447 28.635Z" fill="#262628"/>
<path d="M105.424 11.5875C117.011 16.1748 116.178 26.1907 113.329 33.405C103.805 33.278 94.3845 28.9129 85.0273 22.2066C87.8845 14.9923 93.8369 7.00815 105.432 11.5955L105.424 11.5875Z" fill="#262628"/>
<ellipse cx="92.0634" cy="33.6011" rx="1.19048" ry="1.5873" transform="rotate(16.0875 92.0634 33.6011)" fill="#383A39"/>
<ellipse cx="103.968" cy="37.5696" rx="1.19048" ry="1.5873" transform="rotate(16.0875 103.968 37.5696)" fill="#383A39"/>
<path d="M97.3901 37.0715L96.9845 42.0112L94.4143 41.0351L97.3901 37.0715Z" fill="#F28F8F"/>
<path d="M97.4991 44.7695L90.8887 42.0635C90.8887 42.0635 91.1908 45.8848 93.5475 46.5667C95.639 47.172 97.4991 44.7695 97.4991 44.7695Z" fill="#F4EFEC" stroke="#F4EFEC" stroke-width="0.5"/>
<path d="M92.9886 46.727C94.2305 47.242 96.1069 46.3019 96.1069 46.3019C96.1069 46.3019 94.96 45.1596 93.9796 44.7531C92.9993 44.3465 91.0864 44.2197 91.0864 44.2197C91.0864 44.2197 91.7467 46.2119 92.9886 46.727Z" fill="#F28F8F"/>
</g>
</svg>
