<svg width="150" height="150" viewBox="0 0 150 150" fill="none" xmlns="http://www.w3.org/2000/svg">
<circle cx="75" cy="75" r="75" fill="#95C0DA"/>
<path d="M36.9439 140C31.1354 136.608 30.2774 135.311 23.333 129.444C14.8663 122.292 28.105 110.852 33.5161 110.336C33.5161 110.336 36.155 90.9414 45.1328 95.4303C45.1328 95.4303 49.4883 80.3858 62.8217 85.6636C62.8217 85.6636 75.8772 71.2747 100.299 101.764C100.299 101.764 114.161 75.4277 124.722 131.389C124.722 131.389 110 146.032 88.3329 148.611C76.6663 150 69.7218 150.556 54.9995 147.222C47.5926 145.545 43.5018 143.83 36.9439 140Z" fill="#20445B"/>
<path d="M42.5334 62.708C42.5334 62.708 44.3334 69.208 41.3223 75.6302C41.3223 75.6302 53.1 77.3913 59.3889 73.608C59.3889 73.608 56.7 67.8858 58.4612 62.258L42.5334 62.708Z" fill="#FFCAB1"/>
<path d="M58.461 62.2582L42.5332 62.7082C42.5332 62.7082 42.8276 63.7693 42.9776 65.4582L43.0832 65.4693C43.0832 65.4693 49.2276 70.5971 57.8721 66.8027C57.8332 65.3582 57.9776 63.8027 58.461 62.2582Z" fill="#E8AC90"/>
<path d="M69.7939 52.008C70.0828 51.258 70.2717 50.5135 70.3773 49.7913C70.6717 47.7913 70.2717 46.0024 69.2884 45.0302C69.0273 44.7747 68.7328 44.5691 68.3939 44.4358C66.7939 43.8135 64.7995 44.908 63.3717 46.9858C62.9439 47.608 62.5661 48.3135 62.2606 49.0913C60.955 52.4635 61.5772 55.8524 63.6606 56.658C63.6995 56.6747 63.7384 56.6802 63.7773 56.6913C65.8439 57.3747 68.505 55.3135 69.7884 52.0024L69.7939 52.008Z" fill="#FFCAB1"/>
<path d="M31.9946 50.0134C30.2668 51.4246 30.7168 54.8357 33.0057 57.6412C35.0835 60.1912 37.9557 61.3523 39.7613 60.4857C39.9446 60.3968 40.1168 60.2968 40.2724 60.169C42.0002 58.7579 41.5502 55.3468 39.2613 52.5412C38.6724 51.8134 38.0113 51.2023 37.3391 50.719C35.3946 49.3246 33.2779 48.969 31.9946 50.0134Z" fill="#FFCAB1"/>
<path d="M52.7064 66.7138C55.5786 66.336 58.1064 65.0471 60.0508 63.186C62.9842 60.386 64.5953 56.286 64.0231 51.9582L61.862 35.5638L35.7842 38.9971L37.9453 55.3915C38.3342 58.3415 39.6842 60.9249 41.6231 62.8915C44.4175 65.7249 48.4508 67.2749 52.7008 66.7138H52.7064Z" fill="#FFCAB1"/>
<path d="M69.7357 51.9912C68.469 55.3023 65.8134 57.3746 63.7468 56.7023C63.1634 59.1968 61.8579 61.4523 60.0412 63.2079C59.4023 63.8246 58.6912 64.369 57.9357 64.8523C57.7634 66.619 57.8801 68.7801 58.3134 70.2412L58.6412 70.3412C59.2468 70.4801 59.7412 70.6579 60.0634 70.9023C61.0468 71.6357 64.9412 78.0135 69.4746 84.2412C72.5857 79.3412 70.469 65.4079 70.469 65.4079L71.6301 67.4246C72.0412 64.6079 70.5801 56.0801 69.7523 51.9635C69.7523 51.9746 69.7468 51.9857 69.7412 51.9968L69.7357 51.9912Z" fill="#262628"/>
<path d="M58.9903 42.2802C59.4847 43.9913 60.6181 45.1802 61.6125 45.9358C61.6125 45.9358 64.5292 51.3524 63.907 56.1691C63.907 56.1691 64.8903 54.0524 64.7792 50.158C64.6681 46.2635 64.7792 45.4802 65.4181 44.9469C66.4236 44.3024 67.4792 44.0858 68.4014 44.4413C68.7403 44.5747 69.0347 44.7802 69.2959 45.0358C70.2181 45.9469 70.6181 47.5802 70.4236 49.4302C72.0959 48.8524 72.2792 45.4469 72.2792 45.4469C70.8736 46.6802 69.3736 43.6858 68.4959 41.0469C67.7847 38.9135 63.3847 27.058 52.757 24.1302C54.7236 22.0191 55.5903 19.7524 54.8347 17.9358C53.457 14.6024 47.1959 14.0191 40.8459 16.6413C34.4959 19.2635 30.4681 24.0969 31.8459 27.4302C32.2236 28.3469 32.9847 29.0524 34.007 29.5413C28.3292 36.7691 29.5181 48.3635 29.0736 52.4858C28.457 58.208 27.2236 58.9969 27.2236 58.9969C29.0736 60.2302 30.3903 57.9024 30.3903 57.9024C30.4792 61.5635 27.2236 73.2524 27.2236 86.9802C27.2236 100.708 36.1347 106.164 36.1347 106.164L35.7959 101.147C37.7792 107.08 42.257 109.486 44.4459 110.33C41.0625 99.2635 38.0125 88.458 38.1347 85.8358C38.4014 80.0302 41.6125 77.8191 42.2014 70.8746C42.2014 70.8746 42.4181 70.8413 42.8014 70.7969C43.2736 67.8913 43.0236 65.358 42.7903 63.9302C42.3847 63.608 42.0014 63.258 41.6347 62.8913C40.9236 62.1691 40.2903 61.3635 39.757 60.4913C37.9514 61.3524 35.0792 60.1913 33.007 57.6469C30.7236 54.8413 30.2681 51.4246 31.9959 50.0191C32.6792 49.4635 33.5959 49.308 34.5959 49.4913C34.607 49.4913 35.6292 49.7802 36.4181 52.5413C37.1181 54.9802 38.6792 59.8635 39.4736 60.0247C39.4736 60.0247 36.7403 51.3246 38.4459 49.608L41.3181 47.0858L41.1181 48.4747C44.7403 46.5413 47.2959 43.258 47.2959 43.258L45.8292 46.1635C48.9959 45.008 52.4736 38.508 52.4736 38.508C52.6514 43.7858 59.0736 44.958 59.0736 44.958L58.9847 42.2913L58.9903 42.2802Z" fill="#262628"/>
<path d="M52.8283 23.8801C50.5061 23.1857 48.3283 23.0246 46.3394 23.1857C46.3116 23.169 46.2672 23.1468 46.2116 23.1246C45.5894 21.4134 43.145 15.0857 41.0561 15.0857C40.5894 15.0857 40.1838 15.369 39.8505 15.9301C39.4394 16.6246 39.3505 17.3801 39.5894 18.1746C39.9394 19.319 40.9338 20.4023 42.0394 21.3079C40.0005 20.519 37.6672 19.7801 36.0672 19.7801C35.2116 19.7801 34.6116 19.9968 34.2783 20.419C33.9727 20.8079 33.9061 21.3523 34.0727 22.0412C34.5394 23.9746 36.2894 24.9579 39.2783 24.9579C39.5116 24.9579 39.7505 24.9523 39.9838 24.9412C36.1338 26.769 33.845 29.3246 33.8061 29.3746C33.7116 29.4857 33.7227 29.6523 33.8338 29.7468C33.8838 29.7912 33.945 29.8134 34.0061 29.8134C34.0783 29.8134 34.1505 29.7857 34.2061 29.7246C34.2505 29.6746 37.0838 26.5134 41.7283 24.7746C43.6283 24.5079 45.3061 24.0301 46.0005 23.8134C46.0283 23.8246 46.0561 23.8357 46.0894 23.8357C46.1505 23.8357 46.2172 23.8134 46.2672 23.769C46.2783 23.7579 46.2783 23.7468 46.2894 23.7357C48.2505 23.5634 50.395 23.719 52.6839 24.4023C52.8227 24.4412 52.9727 24.3634 53.0116 24.2246C53.0561 24.0857 52.9727 23.9357 52.8338 23.8968L52.8283 23.8801ZM40.095 18.0246C39.895 17.369 39.9672 16.7746 40.3061 16.2023C40.5394 15.8079 40.7838 15.6134 41.0561 15.6134C42.3672 15.6134 44.3616 19.719 45.5283 22.8023C45.1783 22.6357 44.7338 22.4357 44.2283 22.2134C42.6394 21.2134 40.5894 19.6579 40.095 18.0246ZM39.2783 24.4246C36.5672 24.4246 34.9894 23.5801 34.5894 21.9134C34.4616 21.3912 34.5005 20.9968 34.7005 20.7412C34.9283 20.4523 35.3894 20.3079 36.0727 20.3079C38.1727 20.3079 41.7061 21.6912 43.9838 22.6857C44.395 22.9412 44.7727 23.1634 45.0894 23.3357C43.8505 23.5301 42.6894 23.8523 41.6227 24.2468C40.8561 24.3523 40.0561 24.4246 39.2783 24.4246Z" fill="#20445B"/>
<path d="M54.1659 47.708C54.1659 47.708 57.5826 45.2746 60.3382 47.1969C63.0937 49.1191 60.8771 45.4246 58.2715 45.0302C55.6604 44.6413 54.8104 45.6802 54.8104 45.6802C54.8104 45.6802 54.4493 45.3302 54.0604 45.3246C52.9937 45.3191 52.6548 48.608 54.1659 47.7024V47.708Z" fill="#434351"/>
<path d="M45.3941 48.6859C45.3941 48.6859 41.4941 47.1359 39.2774 49.6637C37.0607 52.1914 38.3274 48.0692 40.7663 47.0692C43.2052 46.0692 44.283 46.8748 44.283 46.8748C44.283 46.8748 44.5496 46.447 44.9219 46.3526C45.9552 46.0914 47.0719 49.2081 45.3885 48.6859H45.3941Z" fill="#434351"/>
<path d="M44.835 54.8474L43.6739 55.1974L42.985 52.9308C42.935 52.7697 42.9572 52.6086 43.0294 52.4697C43.1016 52.3308 43.2294 52.2252 43.3905 52.1752C43.5405 52.1308 43.7016 52.1474 43.835 52.2086C43.9794 52.2808 44.0961 52.4086 44.1461 52.5752L44.835 54.8419V54.8474Z" fill="#262628"/>
<path d="M56.1621 53.0473L57.3621 53.2139L57.6843 50.8695C57.7066 50.7028 57.6621 50.5417 57.5677 50.4195C57.4732 50.2973 57.3343 50.2084 57.1677 50.1862C57.0121 50.164 56.8566 50.2084 56.7343 50.2917C56.601 50.3862 56.5066 50.5306 56.4843 50.7028L56.1621 53.0473Z" fill="#262628"/>
<path d="M56.1621 53.0473L57.3621 53.2139L57.6843 50.8695C57.7066 50.7028 57.6621 50.5417 57.5677 50.4195C57.4732 50.2973 57.3343 50.2084 57.1677 50.1862C57.0121 50.164 56.8566 50.2084 56.7343 50.2917C56.601 50.3862 56.5066 50.5306 56.4843 50.7028L56.1621 53.0473Z" fill="#262628"/>
<path d="M44.835 54.8474L43.6739 55.1974L42.985 52.9308C42.935 52.7697 42.9572 52.6086 43.0294 52.4697C43.1016 52.3308 43.2294 52.2252 43.3905 52.1752C43.5405 52.1308 43.7016 52.1474 43.835 52.2086C43.9794 52.2808 44.0961 52.4086 44.1461 52.5752L44.835 54.8419V54.8474Z" fill="#262628"/>
<path d="M49.751 61.7359C49.751 61.7359 49.801 61.7747 49.8843 61.8414C50.4788 62.2914 52.9232 63.8747 54.4565 60.9136" fill="#EA344F"/>
<path d="M49.751 61.7359C49.751 61.7359 49.801 61.7747 49.8843 61.8414C50.4788 62.2914 52.9232 63.8747 54.4565 60.9136" fill="#EA344F"/>
<path d="M42.1965 70.8803C42.1965 70.8803 57.2298 68.7691 60.0465 70.8803C62.8631 72.9914 89.1576 114.108 89.1576 114.108L98.1131 80.6747C98.1131 80.6747 104.93 79.2025 112.319 85.8914C112.319 85.8914 101.758 130.014 97.1853 133.714C97.1853 133.714 96.8353 139.456 97.1853 146.667C97.1853 146.667 75.0003 155 46.3894 144.444C46.3894 144.444 37.8742 91.6525 38.1409 85.8469C38.4076 80.0414 41.6187 77.8303 42.2076 70.8858L42.1965 70.8803Z" fill="#C06963"/>
<path d="M96.9912 133.519C96.9467 133.569 92.3412 138.18 86.4523 135.053C80.7467 132.019 47.3134 96.6026 44.3745 90.4693C44.3134 90.336 44.1523 90.2804 44.0245 90.3471C43.8912 90.4082 43.8356 90.5693 43.9023 90.6971C46.8634 96.8637 80.4689 132.469 86.2078 135.514C89.8912 137.469 93.1078 136.558 95.1245 135.48C92.8301 137.48 88.0912 140.653 79.2467 143.125C79.1078 143.164 79.0245 143.308 79.0634 143.453C79.0967 143.569 79.2023 143.647 79.3189 143.647C79.3412 143.647 79.3689 143.647 79.3912 143.636C93.4912 139.697 97.2523 134.08 97.4023 133.847C97.4745 133.73 97.4523 133.58 97.3467 133.497C97.2412 133.414 97.0856 133.419 96.9912 133.519Z" fill="#A85C57"/>
<path d="M110.23 88.0916C103.875 83.3249 98.4359 84.3027 98.2081 84.3471C98.0637 84.3749 97.9693 84.5138 97.997 84.6582C98.0248 84.8027 98.1637 84.8916 98.3081 84.8694C98.3637 84.8582 103.741 83.886 109.914 88.5194C109.964 88.5527 110.019 88.5694 110.069 88.5694C110.147 88.5694 110.23 88.5305 110.28 88.4638C110.369 88.3471 110.341 88.1805 110.225 88.0916H110.23Z" fill="#A85C57"/>
<path d="M101.489 63.2024C101.489 63.2024 106.067 59.8024 105.8 57.908C105.533 56.008 102.633 54.0746 100.961 52.3135C99.2888 50.5524 99.3777 46.2024 97.7943 44.9468C96.211 43.6913 92.3388 39.2913 85.0332 40.3468C77.7277 41.4024 76.3221 40.5246 75.0888 42.6357C73.8555 44.7468 72.9777 52.6691 76.411 56.2746C76.411 56.2746 76.8499 60.1468 75.1777 65.9524C73.5054 71.758 71.0443 86.4524 71.7443 87.9524C71.7443 87.9524 82.6554 104.758 83.9777 105.991C83.9777 105.991 82.9221 112.241 84.5054 112.941C84.5054 112.941 84.3277 115.141 86.1777 115.23C86.1777 115.23 87.0554 117.08 88.0277 115.23C88.0277 115.23 88.6443 114.791 89.611 113.908C89.611 113.908 91.1054 119.452 92.8666 119.364C92.8666 119.364 94.4499 121.386 95.861 120.947C95.861 120.947 97.7943 121.914 98.061 119.714C98.061 119.714 99.2943 119.186 98.7666 116.897C98.7666 116.897 99.1166 114.786 97.8888 112.675C96.6554 110.564 92.4332 105.369 92.4332 105.369L93.4888 99.1191L97.2721 85.1302C97.2721 85.1302 98.011 80.608 100.3 80.6968C100.3 80.6968 99.2943 71.5802 96.6554 68.3246C94.0166 65.0691 94.1054 62.8302 96.3888 63.2024C98.6721 63.5746 100.083 63.6246 101.494 63.2024H101.489Z" fill="#F4EFEC"/>
<path d="M92.4701 105.113C92.3256 105.091 92.1867 105.185 92.1645 105.324C92.159 105.363 91.4923 109.085 91.0367 110.908C90.7867 111.896 90.3812 112.385 90.0812 112.624C90.2201 111.88 90.3534 110.974 90.3367 110.33C90.3367 110.219 90.2479 110.13 90.1312 110.135C90.0201 110.135 89.9367 110.23 89.9367 110.341C89.9534 111.041 89.7812 112.102 89.6256 112.88C89.5423 112.941 89.5034 113.046 89.5312 113.152C89.5312 113.169 89.5534 113.18 89.559 113.196C89.4756 113.585 89.4145 113.852 89.4145 113.863C89.3867 113.969 89.4534 114.074 89.559 114.102C89.5756 114.102 89.5923 114.108 89.6034 114.108C89.6923 114.108 89.7756 114.046 89.7979 113.958C89.8034 113.93 89.8645 113.68 89.9423 113.313C90.2312 113.202 91.1256 112.724 91.5479 111.035C92.009 109.202 92.6756 105.458 92.6867 105.419C92.7145 105.274 92.6145 105.141 92.4756 105.113H92.4701Z" fill="#D6C9C4"/>
<path d="M89.671 91.3245C89.5655 91.2911 89.4544 91.3467 89.421 91.4522C89.2099 92.1078 88.7321 92.9022 88.1933 93.7022C88.5266 91.8689 89.2155 87.7911 89.1488 85.8745C89.1488 85.7634 89.0433 85.6911 88.9433 85.6856C88.8321 85.6856 88.7488 85.78 88.7544 85.8911C88.8377 88.2022 87.7433 93.9745 87.6433 94.5022C87.5377 94.6522 87.4321 94.8022 87.3266 94.9522C87.0321 95.3689 86.7488 95.7689 86.4988 96.1411C84.3155 91.6022 84.4433 81.7189 84.4433 81.6189C84.4433 81.5078 84.3599 81.4189 84.2488 81.4189C84.1433 81.43 84.0488 81.5078 84.0488 81.6134C84.0433 82.0411 83.9155 92.0022 86.2488 96.5245C86.1655 96.6578 86.0821 96.7911 86.0099 96.9134C85.121 98.4634 83.8433 105.647 83.7877 105.952C83.771 106.058 83.8377 106.163 83.9488 106.18C83.9599 106.18 83.971 106.18 83.9821 106.18C84.0766 106.18 84.1599 106.113 84.1766 106.019C84.1877 105.947 85.4988 98.6022 86.3544 97.1078C86.671 96.5467 87.1488 95.88 87.6488 95.1745C88.5377 93.9245 89.4599 92.63 89.7988 91.5745C89.8321 91.4689 89.7766 91.3578 89.671 91.3245Z" fill="#D6C9C4"/>
<path d="M85.0541 109.919C84.9486 109.902 84.843 109.969 84.8263 110.08L84.3097 112.908C84.2875 113.013 84.3597 113.119 84.4708 113.135C84.4819 113.135 84.493 113.135 84.5041 113.135C84.5986 113.135 84.6819 113.069 84.6986 112.974L85.2152 110.147C85.2375 110.041 85.1652 109.935 85.0541 109.919Z" fill="#D6C9C4"/>
<path d="M86.4824 111.135C86.3768 111.124 86.2768 111.208 86.2713 111.319L85.9768 115.213C85.9713 115.324 86.0491 115.419 86.1602 115.424C86.1602 115.424 86.1713 115.424 86.1768 115.424C86.2768 115.424 86.3657 115.347 86.3713 115.241L86.6657 111.347C86.6713 111.235 86.5935 111.141 86.4824 111.135Z" fill="#D6C9C4"/>
<path d="M88.9877 111.33C88.8822 111.313 88.7766 111.386 88.76 111.491C88.5711 112.552 87.8433 115.147 87.8377 115.174C87.81 115.28 87.8711 115.391 87.9766 115.419C87.9933 115.419 88.01 115.424 88.0322 115.424C88.1211 115.424 88.1989 115.369 88.2211 115.28C88.2489 115.174 88.96 112.641 89.1544 111.558C89.1711 111.452 89.1044 111.347 88.9933 111.33H88.9877Z" fill="#D6C9C4"/>
<path d="M92.1045 116.935C92.0656 116.835 91.9489 116.785 91.8489 116.824C91.7489 116.863 91.6989 116.98 91.7378 117.08L92.6823 119.435C92.7156 119.513 92.7878 119.558 92.8656 119.558C92.8878 119.558 92.9156 119.558 92.9378 119.541C93.0378 119.502 93.0878 119.385 93.0489 119.285L92.1045 116.93V116.935Z" fill="#D6C9C4"/>
<path d="M94.116 116.141C94.0716 116.041 93.9549 115.997 93.8549 116.036C93.7549 116.08 93.7104 116.197 93.7493 116.297L95.816 121.086C95.8493 121.158 95.9216 121.208 95.9993 121.208C96.0271 121.208 96.0493 121.208 96.0771 121.191C96.1771 121.147 96.2216 121.03 96.1827 120.93L94.116 116.141Z" fill="#D6C9C4"/>
<path d="M95.2822 115.347C95.2211 115.258 95.0988 115.236 95.0044 115.297C94.9155 115.358 94.8933 115.48 94.9544 115.574L97.8933 119.83C97.9322 119.886 97.9933 119.913 98.0544 119.913C98.0933 119.913 98.1322 119.902 98.1655 119.88C98.2544 119.819 98.2766 119.697 98.2155 119.602L95.2766 115.347H95.2822Z" fill="#D6C9C4"/>
<path d="M98.9105 116.769L95.8994 113.38C95.8272 113.297 95.6994 113.291 95.6217 113.363C95.5383 113.436 95.5328 113.563 95.605 113.641L98.6161 117.03C98.655 117.074 98.7105 117.097 98.7661 117.097C98.8105 117.097 98.8605 117.08 98.8994 117.047C98.9828 116.974 98.9883 116.847 98.9161 116.769H98.9105Z" fill="#D6C9C4"/>
<path d="M87.8262 80.6465C87.865 80.6465 87.8984 80.6354 87.9317 80.6132C88.0206 80.5521 88.0484 80.4298 87.9873 80.3409C85.9484 77.2187 87.5984 70.6632 87.615 70.6021C87.6428 70.4965 87.5762 70.3854 87.4706 70.3632C87.365 70.3409 87.2595 70.4021 87.2317 70.5076C87.1595 70.7854 85.5206 77.2965 87.6539 80.5632C87.6928 80.6187 87.7539 80.6521 87.8206 80.6521L87.8262 80.6465Z" fill="#D6C9C4"/>
<path d="M84.049 79.0743C84.0212 79.1799 84.0823 79.291 84.1879 79.3188C84.2046 79.3188 84.2212 79.3243 84.2379 79.3243C84.3268 79.3243 84.4046 79.2688 84.4268 79.1799C85.2712 76.041 82.2546 70.1466 82.1268 69.8966C82.0768 69.8021 81.9601 69.7632 81.8601 69.8132C81.7657 69.8632 81.7268 69.9854 81.7768 70.0799C81.8101 70.141 84.849 76.0854 84.049 79.0799V79.0743Z" fill="#D6C9C4"/>
<path d="M79.3786 93.8466C79.312 91.3411 77.2675 86.4577 76.5398 82.1633C75.812 77.8744 76.6731 74.4411 78.8509 73.5188C81.0286 72.5966 80.5009 64.6244 80.5009 64.6244C83.9342 62.33 83.6675 55.4355 87.2342 53.5911C90.7953 51.7411 93.7009 55.1744 97.662 54.2522C100.445 53.6022 100.44 52.0022 100.195 51.1077C100.106 50.9077 100.023 50.6966 99.9453 50.48V50.4744C99.2231 48.4633 98.962 45.8688 97.7953 44.9466C96.212 43.6911 92.3398 39.2911 85.0342 40.3466C77.7286 41.4022 76.3231 40.5244 75.0898 42.6355C73.8564 44.7466 72.9786 52.6688 76.412 56.2744C76.412 56.2744 76.8509 60.1466 75.1786 65.9522C73.5064 71.7577 71.0453 86.4522 71.7453 87.9522C71.7453 87.9522 76.0342 94.5633 79.562 99.7966C78.4342 98.13 79.4453 96.3577 79.3786 93.8466Z" fill="#BC7348"/>
<path d="M88.7179 62.2576C86.179 63.1576 85.3179 64.6409 86.3124 64.6243C87.3013 64.6131 90.579 67.1854 90.7235 69.8243C90.8679 72.4631 96.1735 78.5854 95.5346 80.6743C94.8957 82.7631 91.7902 82.6298 92.1235 85.6631C92.4513 88.6965 94.1679 92.6576 93.0457 94.4409C91.9235 96.2243 92.4013 101.463 93.3179 100.13L93.4846 99.1298L97.2679 85.1409C97.2679 85.1409 98.0068 80.6187 100.296 80.7076C100.296 80.7076 99.2902 71.5909 96.6513 68.3354C94.3957 65.552 94.1346 63.5187 95.5402 63.2131H95.5346C95.5346 63.2131 91.2624 61.3576 88.7235 62.2631L88.7179 62.2576Z" fill="#BC7348"/>
<path d="M88.9557 43.1298C87.5224 43.2854 86.5779 45.7131 86.5779 47.252C86.5779 48.6409 85.5946 50.3742 83.4779 52.7187C81.8668 54.5076 80.5279 56.602 79.7279 57.852C79.4668 58.2576 79.2613 58.5798 79.139 58.7409C78.8613 59.1131 78.4835 59.3576 78.2724 59.3076C78.1002 59.2687 78.0224 59.002 77.989 58.8465C77.7502 57.6798 76.6724 56.1798 76.6224 56.1187C76.539 56.002 76.3724 55.9742 76.2557 56.0576C76.139 56.1409 76.1113 56.3076 76.1946 56.4242C76.2057 56.4409 77.2557 57.902 77.4724 58.952C77.6002 59.5742 77.9168 59.7687 78.1557 59.8242C78.2113 59.8354 78.2724 59.8409 78.3279 59.8409C78.8002 59.8409 79.2724 59.4354 79.5613 59.0576C79.6946 58.8798 79.8946 58.5687 80.1724 58.1354C80.9613 56.8965 82.289 54.8242 83.8724 53.0687C86.1113 50.5909 87.1057 48.7965 87.1057 47.252C87.1057 45.7076 88.0335 43.7576 89.0168 43.652C89.1613 43.6354 89.2668 43.5076 89.2502 43.3631C89.2335 43.2187 89.1057 43.1131 88.9613 43.1298H88.9557Z" fill="#A35833"/>
<path d="M106.066 57.2852C105.494 56.4907 103.516 56.8296 103.516 56.8296C101.811 56.8296 102.416 58.3852 102.683 59.0018C102.883 59.4741 102.528 60.5018 102.539 61.1407C101.828 61.1852 100.789 61.3018 99.8276 61.4074C99.3498 61.463 98.9109 61.513 98.5832 61.5407C97.3609 61.663 93.4998 59.9074 93.4609 59.8852C93.3943 59.8518 93.3165 59.8852 93.2832 59.9518C93.2554 60.0185 93.2832 60.0963 93.3498 60.1241C93.5054 60.1963 97.0498 61.8074 98.4609 61.8074C98.5109 61.8074 98.5609 61.8074 98.6054 61.8018C98.9387 61.7685 99.3776 61.7185 99.8554 61.6685C100.783 61.563 101.866 61.4463 102.572 61.4018C102.594 61.4796 102.628 61.5463 102.683 61.5907C103.122 61.9852 104.578 60.8407 105.816 60.1407C107.061 59.4352 106.639 58.0741 106.072 57.2796L106.066 57.2852Z" fill="#262628"/>
<path d="M95.1095 50.1465C95.1095 50.7242 94.7262 51.1965 94.254 51.1965C93.7818 51.1965 93.3984 50.7298 93.3984 50.1465C93.3984 49.5631 93.7818 49.0965 94.254 49.0965C94.7262 49.0965 95.1095 49.5631 95.1095 50.1465Z" fill="#262628"/>
<path d="M106.066 82.1637V79.5026C106.066 77.7859 104.744 73.8693 103.866 72.0693C102.989 70.2637 99.8164 63.4915 99.8164 63.4915C99.8164 63.4915 92.8275 62.3915 92.3831 62.2581C91.9442 62.1248 91.372 62.8304 91.2387 63.797C91.1053 64.7637 93.1331 71.0137 95.1109 74.5748C97.0887 78.1359 98.122 79.7248 98.6498 80.6693C98.6498 80.6693 103.466 80.4804 106.066 82.1637Z" fill="#FFCAB1"/>
<path d="M98.8328 69.3081C98.2273 68.7081 97.2661 67.0692 96.2439 65.3359C95.9606 64.8581 95.6717 64.3692 95.3773 63.8803C93.8939 61.4081 92.3439 61.9859 92.2828 62.0081C92.1495 62.0637 92.0828 62.2137 92.1328 62.347C92.1828 62.4803 92.3384 62.5526 92.4717 62.497C92.5217 62.4803 93.6828 62.0803 94.9217 64.147C95.2161 64.6359 95.505 65.1248 95.7828 65.6026C96.8661 67.4415 97.805 69.0303 98.455 69.6803C98.505 69.7303 98.5717 69.7581 98.6384 69.7581C98.705 69.7581 98.7717 69.7303 98.8273 69.6803C98.9273 69.5748 98.9273 69.4081 98.8273 69.3081H98.8328Z" fill="#E8AC90"/>
<path d="M50.2271 51.2506L53.608 58.1539L50.3324 58.9366L50.2271 51.2506Z" fill="#F28F8F"/>
<path d="M50.2271 51.2506L53.608 58.1539L50.3324 58.9366L50.2271 51.2506Z" fill="#F28F8F"/>
<path d="M65.2658 44.9582C65.1325 44.9082 64.9769 44.9693 64.9213 45.1082L62.8213 50.3693C62.5713 47.436 60.1102 45.1248 57.1102 45.1248C53.9491 45.1248 51.3769 47.6971 51.3769 50.8582C51.3769 52.1915 51.838 53.4193 52.6047 54.3915C51.1158 54.136 49.7436 54.586 48.9547 54.9415C49.1936 54.3082 49.3324 53.6304 49.3324 52.9137C49.3324 49.7526 46.7602 47.1804 43.5991 47.1804C40.438 47.1804 37.8658 49.7526 37.8658 52.9137C37.8658 53.2471 37.8991 53.5637 37.9547 53.8804L34.8102 49.3415C34.7269 49.2248 34.5658 49.1915 34.4436 49.2748C34.3213 49.3582 34.2936 49.5248 34.3769 49.6415L38.7491 55.9582C38.838 56.0971 38.9269 56.2304 39.0269 56.3582L39.1102 56.4804C39.1102 56.4804 39.1213 56.4915 39.1325 56.4971C40.1825 57.8082 41.7936 58.6471 43.5991 58.6471C45.7436 58.6471 47.6102 57.4637 48.5936 55.7137C48.9269 55.5193 51.1047 54.3304 53.2769 55.1082C54.2936 56.0248 55.638 56.5915 57.1102 56.5915C59.8658 56.5915 62.1713 54.6415 62.7213 52.0471L65.4102 45.3026C65.4658 45.1693 65.3991 45.0137 65.2658 44.9582ZM43.5991 58.1137C41.9213 58.1137 40.4269 57.3082 39.4713 56.0693L39.1769 55.6471C38.6825 54.8471 38.388 53.9137 38.388 52.9082C38.388 50.036 40.7213 47.7026 43.5936 47.7026C46.4658 47.7026 48.7991 50.036 48.7991 52.9082C48.7991 55.7804 46.4658 58.1137 43.5936 58.1137H43.5991ZM57.1158 56.0582C54.2436 56.0582 51.9102 53.7248 51.9102 50.8526C51.9102 47.9804 54.2436 45.6471 57.1158 45.6471C59.988 45.6471 62.3213 47.9804 62.3213 50.8526C62.3213 53.7248 59.988 56.0582 57.1158 56.0582Z" fill="white"/>
</svg>
