<svg width="396" height="205" viewBox="0 0 396 205" fill="none" xmlns="http://www.w3.org/2000/svg">
<g clip-path="url(#clip0_1972_3680)">
<path d="M136.943 0.549161C122.431 2.00651 108.447 6.37855 95.9633 14.9325C79.8462 25.9788 68.5663 42.2419 58.7439 58.8219C47.6752 77.5139 38.0007 97.3676 23.5312 113.779C16.2014 122.079 8.32238 130.337 4.1822 140.623C-11.3224 179.021 19.391 183.605 47.5485 186.012C67.5523 187.723 87.6407 188.209 107.708 188.547C160.812 189.476 213.916 188.272 266.999 187.829C277.962 187.744 288.904 187.66 299.867 187.808C321.688 188.082 347.205 191.757 368.708 188.124C407.533 181.556 399.865 125.015 377.052 105.626C373.377 102.5 369.194 99.7754 366.596 95.7202C361.653 88.0322 363.639 77.9152 361.421 69.0656C355.929 47.1631 327.877 40.1721 305.402 42.3687C289.876 43.8894 274.139 48.0713 258.487 46.5928C243.848 45.22 229.611 39.4117 218.352 29.9284C212.079 24.6482 206.692 18.2908 200.08 13.4118C190.786 6.56863 179.401 2.95695 167.973 1.37288C157.622 -0.0633471 147.166 -0.485766 136.943 0.52804V0.549161Z" fill="#95C0DA"/>
<path d="M75.6221 128.943C76.8684 134.371 80.1425 137.709 81.9592 139.504C85.8036 143.306 89.8593 144.847 92.5208 145.84C93.8727 146.347 98.6255 147.994 105.195 147.952C110.011 147.931 112.102 147.002 117.869 145.84C125.854 144.235 130.754 143.242 136.88 143.728C145.879 144.446 153.694 148.079 158.003 150.064C159.778 150.888 161.235 151.627 162.228 152.176C162.503 153.739 163.073 156.02 164.34 158.513C167.34 164.448 172.135 167.405 174.902 169.073C179.951 172.093 184.555 174.86 189.688 173.297C195.286 171.587 197.715 165.863 198.138 164.849C199.49 161.66 199.574 158.555 198.138 150.064C196.807 142.228 195.307 136.336 193.913 131.055C190.745 118.974 189.118 112.891 187.576 109.935C183.922 102.922 179.148 97.5576 177.014 95.1498C175.198 93.1011 173.381 91.0735 170.677 88.8136C165.185 84.2092 160.01 82.0549 155.891 80.3652C150.399 78.1052 146.576 76.5212 141.105 76.141C133.733 75.613 128.135 77.5772 126.318 78.2531C123.783 79.2035 117.087 81.738 112.588 87.7575C111.975 88.5601 110.771 90.4188 108.363 94.0938C105.174 98.9516 105.068 99.3107 104.139 100.43C101.118 104.063 97.5693 105.837 95.6894 106.766C89.7114 109.702 87.8737 107.991 83.0153 110.991C81.4099 111.983 78.5372 113.8 76.6783 117.327C74.1013 122.248 75.2208 127.19 75.6221 128.943Z" fill="#D8B49C"/>
<path d="M75.7274 128.922C77.6073 136.8 84.4513 142.799 91.9079 145.439C99.4489 148.311 107.835 148.459 115.566 146.094C119.516 145.228 123.445 144.362 127.459 143.749C139.668 141.658 151.835 146.115 162.502 151.691L162.735 151.817L162.777 152.092C163.706 157.288 166.537 162.061 170.614 165.377C179.021 171.692 190.237 178.43 196.807 165.926C199.489 161.364 198.18 155.809 197.419 150.571C195.666 139.99 192.645 129.64 189.794 119.249C188.442 114.032 186.583 109.238 183.393 104.844C177.331 96.2904 170.107 87.9265 160.39 83.47C155.616 81.3368 150.589 79.0557 145.519 77.8307C135.38 75.6764 123.952 78.3376 116.094 85.1597C112.186 88.7925 109.694 93.6292 106.61 97.9378C103.821 102.753 98.9631 106.048 93.9146 107.97C91.3587 109.047 88.5281 109.026 86.0356 109.829C78.1143 112.49 73.3615 120.748 75.7274 128.901V128.922ZM75.5373 128.965C73.0236 120.664 77.7552 112.152 85.8455 109.322C93.6611 107.822 101.625 104.612 105.554 97.3042C108.574 92.8055 111.003 87.7575 114.932 83.9347C123.255 76.5423 135.126 73.4587 145.984 75.8031C156.461 78.8023 166.98 83.2165 174.712 91.1158C182.231 98.9516 189.244 107.928 191.568 118.784C194.314 129.218 197.271 139.609 198.982 150.339C199.574 154.373 200.419 158.555 199.616 162.674C196.426 174.269 186.456 177.648 176.634 170.869C169.367 167.109 162.904 160.709 161.678 152.303L161.953 152.704C145.287 143.728 134.049 142.017 115.651 146.601C100.737 151.247 79.8676 145.566 75.495 129.007L75.5373 128.965Z" fill="#080507"/>
<path d="M188.631 110.991C190.447 112.406 196.256 114.813 201.305 115.215C208.614 115.806 214.444 111.582 220.527 108.203C227.963 104.084 235.483 100.092 243.446 97.1141C264.189 89.3627 290.741 86.0679 311.146 96.2059C313.132 97.1986 318.223 99.8599 323.82 104.654C325.616 106.196 331.256 111.202 336.495 119.439C339.579 124.297 341.564 128.753 342.832 132.112C342.134 133.527 341.416 134.921 340.719 136.336C333.748 132.576 320.441 128.732 302.697 127.887C282.883 126.958 267.759 130.781 260.45 134.224C252.614 133.104 241.651 134.498 228.765 136.336C216.324 138.11 204.178 139.546 197.08 142.672C197.08 142.672 194.229 133.484 192.856 127.887C191.166 120.939 190.743 117.327 188.631 110.991Z" fill="#D8B49C" stroke="#080507" stroke-linejoin="round"/>
<path d="M163.285 155.345C162.376 150.149 159.525 138.173 159.06 132.112C158.278 121.952 158.447 112.723 159.06 104.654" fill="#D8B49C"/>
<path d="M162.249 155.535C160.919 147.15 158.68 138.786 158.321 130.232C157.961 121.699 158.215 113.145 159.06 104.654C158.616 113.166 158.764 121.699 159.525 130.147C160.243 138.617 162.693 146.791 164.32 155.155C164.594 156.527 162.461 156.929 162.228 155.514L162.249 155.535Z" fill="#080507"/>
<path d="M343.171 95.7624C343.34 93.6503 343.234 93.418 343.467 92.7843C343.995 91.4115 345.431 89.9541 346.741 90.1231C348.008 90.2709 348.811 91.8761 349.402 93.3969C351.747 99.2262 353.627 103.915 352.212 110.188C349.951 120.242 341.418 124.825 340.15 125.48C337.679 120.22 332.44 112.68 331.109 111.054C334.172 109.153 337.932 105.837 339.284 104.38C341.185 102.352 342.537 100.853 342.854 98.7405C342.917 98.2969 343.065 97.0719 343.15 95.7624H343.171Z" fill="#D8B49C"/>
<path d="M343.065 95.7624C343.065 93.6926 343.361 91.4326 345.431 90.3343C347.733 88.9615 349.149 92.0029 349.824 93.7137C356.542 106.006 352.908 119.397 340.594 126.346L339.749 126.81C337.129 121.551 333.707 116.482 330.306 111.709L329.609 110.779C332.736 108.9 335.82 106.766 338.629 104.316C339.833 103.155 341.143 102.035 341.967 100.62C342.875 99.2262 342.769 97.431 343.044 95.7624H343.065ZM343.276 95.7624C343.065 97.431 343.255 99.2051 342.431 100.831C339.791 105.351 335.904 108.879 331.658 111.92L331.912 110.399C335.503 114.982 338.545 119.798 341.037 125.057L339.727 124.614C343.213 122.839 346.339 120.136 348.578 116.841C353.563 109.977 352.571 101.338 349.339 93.8615C348.768 92.2352 347.733 89.3416 345.558 90.4822C343.551 91.5171 343.318 93.7137 343.297 95.7413L343.276 95.7624Z" fill="#080507"/>
<path d="M344.819 93.3969C343.826 94.981 344.312 96.1849 343.974 99.4375C343.741 101.824 343.446 101.613 343.551 102.458C344.037 105.964 349.022 108.583 350.522 107.463C350.733 107.316 351.05 106.957 350.945 104.443C350.881 102.796 350.67 100.831 347.839 93.587C347.607 92.9745 347.227 92.024 346.53 91.9818C345.727 91.9395 344.945 93.1646 344.798 93.3969H344.819Z" fill="#FFEADE" stroke="#FFEADE" stroke-width="0.75" stroke-miterlimit="10"/>
<path d="M75.9596 124.402C78.2621 127.402 82.7402 128.479 86.7537 126.874C90.4925 125.395 91.7599 121.636 90.9361 117.876C90.1968 114.518 86.5213 110.822 83.3105 110.399C79.8463 109.935 74.4387 114.623 74.3965 119.481C74.3965 121.445 74.9668 123.093 75.9596 124.381V124.402Z" fill="#080507"/>
<path d="M124.965 120.833C129.148 122.692 132.633 122.882 134.83 121.805C137.027 120.727 130.626 121.234 126.444 119.355C122.261 117.475 120.593 112.976 119.684 115.046C118.776 117.116 120.804 118.953 124.986 120.812L124.965 120.833Z" fill="#080507"/>
<path d="M291.778 108.794C295.2 115.743 285.863 126.916 278.555 132.386C270.38 138.532 262.057 139.546 252.319 140.75C243.511 141.848 228.767 143.665 226.021 137.751C224.521 134.519 228.027 129.556 231.83 124.001C234.09 120.685 235.505 118.594 238.061 116.904C242.56 113.948 243.933 114.518 253.143 111.92C264.74 108.646 272.725 103.978 278.005 102.965C282.737 102.056 289.602 104.359 291.757 108.773L291.778 108.794Z" fill="#FFEADE"/>
<path d="M74.5657 132.112C72.1998 132.323 69.8974 133.062 66.1163 136.336C59.8004 141.785 59.7793 150.381 59.7793 155.345C59.7793 158.428 59.8427 165.208 64.004 172.241C70.7212 183.604 82.7193 186.498 85.1274 187.026H318.329C327.518 187.026 336.136 187.702 344.544 183.203C348.113 181.302 351.345 178.789 354.049 175.79C361.125 167.933 364.59 157.182 364.4 146.601C364.315 141.827 363.47 136.885 360.661 133.02C354.746 124.867 343.72 127.043 340.72 136.336C328.004 130.971 316.872 128.817 309.035 127.887C302.74 127.127 294.439 126.198 283.687 127.887C274.71 129.281 267.528 131.964 262.564 134.224C240.152 134.055 237.849 134.076 235.103 134.224C226.485 134.709 212.079 136.526 197.081 142.672C197.06 144.636 199.616 159.822 198.391 163.983C197.187 168.102 194.23 171.882 189.836 172.579C185.125 173.34 180.161 172.347 175.958 170.129C172.261 168.165 169.283 165.039 166.917 161.639C165.713 159.928 164.636 158.09 163.685 156.232C163.157 155.197 162.101 151.627 161.193 151.12C151.244 145.502 139.562 142.841 128.177 143.791C122.79 144.235 117.784 145.988 112.503 146.875C109.588 147.361 106.631 147.467 103.674 147.424C100.59 147.382 97.4845 147.171 94.4639 146.495C90.4504 145.587 86.6271 143.813 83.3107 141.341C81.642 140.095 80.1 138.68 78.727 137.117C77.354 135.554 76.7202 132.133 74.6079 132.133L74.5657 132.112Z" fill="#FFCAB1" stroke="#0C0806" stroke-miterlimit="10"/>
<path d="M27.5645 170.678L61.8899 204.599L92.8991 164.321L50.6734 139.609L27.5645 170.678Z" fill="#EDEEEF"/>
<path d="M27.6076 170.678L62.0598 204.387H61.6585L92.5197 164.025L92.6465 164.68C80.1625 157.457 62.6301 147.276 50.4208 139.99L51.0334 139.863C43.3022 150.086 35.5711 160.287 27.6076 170.657V170.678ZM27.502 170.678C34.9374 160.329 42.6263 149.832 50.2941 139.335L50.5264 138.997L50.8855 139.208C63.1793 146.199 80.7118 156.654 93.1112 163.92L93.5548 164.173L93.2379 164.574C93.0478 164.807 62.0598 204.789 61.9119 204.979C61.743 204.81 27.7132 170.869 27.502 170.678Z" fill="#0C0806"/>
<path d="M51.8358 140.18L52.047 164.638L51.7091 164.3C65.3759 164.173 79.4441 163.455 92.8997 164.384C79.1906 165.229 65.4604 165.018 51.7302 164.976H51.3711V164.638C51.4767 164.638 51.5401 139.99 51.8358 140.201V140.18Z" fill="#0C0806"/>
<path d="M186.076 43.0867C184.639 43.5514 183.139 43.9738 181.576 44.3751C180.013 44.7764 178.577 44.9665 177.309 44.9665C176.169 44.9665 175.239 44.7553 174.521 44.2906C173.803 43.826 173.275 43.0867 172.937 42.0729C172.789 41.6294 172.705 41.0802 172.683 40.4466C172.683 39.813 172.789 39.1371 173.064 38.3768C173.338 37.6164 173.845 36.8349 174.563 36.0112C174.901 35.631 175.239 35.2509 175.577 34.8707C175.915 34.4905 176.274 34.0892 176.612 33.709C176.971 33.3289 177.331 32.9698 177.669 32.6107C178.028 32.2517 178.366 31.9138 178.682 31.5969C179.02 31.2801 179.337 31.0056 179.633 30.7521C180.288 30.2241 180.689 29.8439 180.795 29.5904C180.9 29.3581 180.943 29.168 180.9 29.0202C180.837 28.8512 180.689 28.7879 180.415 28.8301C180.14 28.8723 179.802 28.9568 179.401 29.0835C178.957 29.2314 178.471 29.4004 177.985 29.5904C177.5 29.7805 176.993 29.9917 176.486 30.2241C175.979 30.4564 175.493 30.6676 175.007 30.8577C174.521 31.0478 174.078 31.2168 173.676 31.3435C173.169 31.5125 172.662 31.5758 172.176 31.5336C171.691 31.4913 171.268 31.3435 170.909 31.0689C170.55 30.8155 170.275 30.4142 170.106 29.8861C169.895 29.2525 169.98 28.6189 170.339 28.0064C170.698 27.3939 171.268 26.8236 172.007 26.2745C172.747 25.7253 173.571 25.2184 174.5 24.7537C175.429 24.2891 176.338 23.8667 177.246 23.4865C177.69 23.2964 178.175 23.1063 178.725 22.8951C179.253 22.6839 179.823 22.4938 180.372 22.2826C180.943 22.0714 181.492 21.8602 182.02 21.6701C182.548 21.48 183.034 21.311 183.477 21.1632C185.442 20.5296 186.942 20.4028 187.977 20.8041C189.012 21.2054 189.73 21.9658 190.089 23.1063C190.364 23.93 190.385 24.8382 190.195 25.7887C189.983 26.7391 189.434 27.7529 188.526 28.809C188.04 29.3792 187.533 29.9495 187.005 30.562C186.477 31.1745 185.97 31.7659 185.442 32.3362C184.914 32.9064 184.449 33.4345 184.006 33.878C183.562 34.3427 183.203 34.7228 182.928 34.9974C182.569 35.3142 182.358 35.5677 182.252 35.7578C182.168 35.969 182.147 36.1591 182.21 36.3492C182.273 36.5392 182.4 36.6237 182.611 36.666C182.823 36.7082 183.118 36.666 183.499 36.5815C183.879 36.497 184.365 36.3492 184.977 36.1591C185.759 35.9056 186.561 35.6099 187.364 35.272C188.167 34.9341 189.096 34.5961 190.152 34.2371C191.145 33.8991 192.011 33.8991 192.708 34.1948C193.405 34.4905 193.891 35.0397 194.145 35.8422C194.398 36.6026 194.335 37.3207 193.997 38.0177C193.659 38.7147 193.089 39.3906 192.286 40.0031C191.504 40.6156 190.554 41.1859 189.476 41.7139C188.399 42.2208 187.259 42.6854 186.012 43.0867H186.076Z" fill="#20445B"/>
<path d="M146.259 40.7212C145.139 40.2565 143.978 39.7285 142.816 39.1371C141.654 38.5457 140.661 37.9121 139.88 37.2573C139.183 36.666 138.718 36.0323 138.507 35.3776C138.295 34.7228 138.359 33.9836 138.697 33.181C138.845 32.8219 139.077 32.4418 139.394 32.0616C139.711 31.6603 140.154 31.3012 140.725 30.9844C141.295 30.6676 142.013 30.4353 142.879 30.3085C143.281 30.2452 143.682 30.2029 144.104 30.1396C144.527 30.0762 144.928 30.0129 145.351 29.9706C145.773 29.9284 146.174 29.8861 146.576 29.8439C146.977 29.8016 147.357 29.7805 147.738 29.7594C148.118 29.7594 148.456 29.7383 148.773 29.7383C149.449 29.7594 149.892 29.7383 150.082 29.6327C150.272 29.5482 150.399 29.4426 150.441 29.337C150.505 29.2103 150.441 29.0835 150.251 28.9568C150.061 28.8301 149.808 28.7034 149.491 28.5766C149.132 28.4288 148.751 28.2809 148.35 28.1542C147.949 28.0064 147.526 27.8796 147.104 27.7529C146.681 27.6262 146.259 27.4995 145.858 27.3727C145.456 27.246 145.097 27.0982 144.78 26.9714C144.379 26.8025 144.041 26.5913 143.745 26.2956C143.471 26.021 143.281 25.7042 143.196 25.3451C143.112 24.9861 143.154 24.6059 143.323 24.1835C143.534 23.6766 143.914 23.3386 144.463 23.1485C145.013 22.9585 145.667 22.8951 146.407 22.9585C147.146 23.0218 147.928 23.1485 148.751 23.3386C149.575 23.5287 150.357 23.761 151.117 23.9934C151.476 24.1201 151.899 24.2468 152.321 24.3947C152.765 24.5425 153.209 24.7115 153.673 24.8805C154.138 25.0494 154.582 25.1973 155.004 25.3662C155.448 25.5352 155.828 25.6831 156.166 25.8309C157.708 26.4645 158.701 27.1826 159.123 27.9641C159.546 28.7456 159.588 29.6116 159.208 30.4986C158.933 31.1534 158.489 31.7237 157.856 32.2094C157.222 32.6952 156.356 33.0332 155.236 33.2021C154.645 33.2866 154.032 33.3922 153.377 33.4978C152.723 33.6034 152.11 33.6879 151.476 33.7724C150.843 33.8569 150.293 33.9202 149.787 33.9836C149.28 34.047 148.857 34.0892 148.519 34.1103C148.139 34.1103 147.864 34.1526 147.695 34.237C147.526 34.3215 147.421 34.4271 147.357 34.575C147.294 34.7228 147.336 34.8496 147.442 34.9763C147.547 35.103 147.759 35.2509 148.033 35.3987C148.308 35.5465 148.688 35.7155 149.174 35.9056C149.787 36.1591 150.441 36.3914 151.117 36.6026C151.793 36.8138 152.554 37.0884 153.377 37.4474C154.159 37.7642 154.708 38.2078 154.983 38.7569C155.257 39.3061 155.257 39.8975 154.983 40.5311C154.729 41.1225 154.328 41.5449 153.758 41.7983C153.187 42.0518 152.49 42.1574 151.667 42.1363C150.843 42.094 149.977 41.9673 149.047 41.7139C148.118 41.4604 147.167 41.1436 146.196 40.7423L146.259 40.7212Z" fill="#20445B"/>
<path d="M143.892 66.9535C143.173 67.2703 142.392 67.566 141.589 67.8405C140.787 68.1151 140.047 68.2841 139.371 68.3474C138.78 68.4108 138.273 68.3474 137.871 68.1362C137.47 67.925 137.153 67.566 136.942 67.0379C136.836 66.8056 136.773 66.531 136.731 66.1931C136.689 65.8763 136.731 65.4961 136.836 65.0948C136.942 64.6935 137.174 64.25 137.512 63.7853C137.66 63.5741 137.829 63.3629 137.977 63.1306C138.125 62.8982 138.294 62.687 138.463 62.4758C138.632 62.2646 138.801 62.0534 138.97 61.8422C139.139 61.631 139.308 61.4409 139.456 61.2719C139.625 61.0818 139.773 60.934 139.92 60.7861C140.237 60.4904 140.427 60.2581 140.47 60.1314C140.512 60.0047 140.512 59.8991 140.491 59.8357C140.449 59.7512 140.364 59.7301 140.237 59.7512C140.089 59.7723 139.92 59.8357 139.709 59.9413C139.477 60.0469 139.245 60.1525 138.991 60.2792C138.738 60.406 138.484 60.5327 138.231 60.6805C137.977 60.8284 137.724 60.9551 137.491 61.0818C137.259 61.2086 137.027 61.3142 136.815 61.3986C136.562 61.5042 136.287 61.5676 136.034 61.5676C135.78 61.5676 135.548 61.5042 135.337 61.3775C135.125 61.2508 134.978 61.0607 134.851 60.7861C134.703 60.4693 134.724 60.1314 134.893 59.7934C135.062 59.4555 135.316 59.1176 135.675 58.8008C136.034 58.4839 136.456 58.1671 136.921 57.8926C137.386 57.5969 137.85 57.3434 138.294 57.09C138.526 56.9632 138.759 56.8365 139.033 56.7098C139.308 56.5831 139.582 56.4352 139.878 56.3085C140.153 56.1606 140.449 56.0339 140.702 55.9072C140.977 55.7805 141.23 55.6749 141.441 55.5693C142.434 55.1468 143.216 54.999 143.786 55.168C144.356 55.3158 144.758 55.696 145.011 56.2662C145.201 56.6887 145.244 57.1533 145.201 57.6602C145.138 58.1671 144.906 58.7163 144.483 59.3288C144.251 59.6456 144.018 59.9835 143.786 60.3215C143.554 60.6594 143.3 60.9973 143.047 61.3353C142.793 61.6732 142.582 61.9478 142.371 62.2224C142.16 62.4969 141.991 62.7081 141.864 62.856C141.695 63.0461 141.589 63.1728 141.547 63.2995C141.505 63.4051 141.505 63.5107 141.547 63.6163C141.589 63.7219 141.653 63.7642 141.779 63.7642C141.885 63.7642 142.054 63.7642 142.244 63.6797C142.434 63.5952 142.688 63.5107 143.004 63.384C143.406 63.215 143.807 63.025 144.208 62.7926C144.61 62.5814 145.096 62.3491 145.624 62.1168C146.131 61.9055 146.574 61.8422 146.955 61.9689C147.335 62.0956 147.609 62.3491 147.778 62.7715C147.947 63.1517 147.947 63.5319 147.821 63.912C147.673 64.2922 147.419 64.6724 147.018 65.0314C146.638 65.3905 146.173 65.7284 145.624 66.0664C145.096 66.3832 144.504 66.6789 143.871 66.9535H143.892Z" fill="#20445B"/>
<path d="M177.965 118.045C182.908 117.961 186.816 126.388 187.978 132.069C189.288 138.448 187.619 143.538 185.675 149.473C183.901 154.859 180.965 163.835 176.804 163.814C174.543 163.814 172.621 160.435 170.445 156.717C169.157 154.521 168.333 153.127 168.059 151.205C167.573 147.804 168.27 147.171 169.284 141.172C170.551 133.59 170.023 127.74 170.868 124.402C171.628 121.424 174.818 118.108 177.965 118.045Z" fill="#FFEADE"/>
</g>
<defs>
<clipPath id="clip0_1972_3680">
<rect width="396" height="205" fill="white"/>
</clipPath>
</defs>
</svg>
