<svg width="341" height="261" viewBox="0 0 341 261" fill="none" xmlns="http://www.w3.org/2000/svg">
<path d="M340.5 154.164C340.5 239.301 264.38 259.42 170.509 259.42C76.6378 259.42 0.5 239.301 0.5 154.164C0.5 69.0274 76.6197 0 170.491 0C264.362 0 340.482 69.0274 340.482 154.164H340.5Z" fill="#95C0DA"/>
<path d="M99.1581 105.818C99.9015 104.167 100.083 104.022 100.155 103.459C100.337 102.208 99.829 100.521 98.7954 100.103C97.78 99.6861 96.5107 100.575 95.4409 101.464C91.2886 104.893 87.9341 107.65 86.411 112.966C83.9813 121.474 88.5144 128.458 89.1853 129.456C93.2107 126.517 100.264 122.998 101.95 122.308C100.427 119.623 98.9586 115.56 98.5416 113.909C97.9432 111.605 97.5443 109.918 98.1789 108.176C98.3059 107.813 98.7229 106.834 99.1762 105.818H99.1581Z" fill="#D8B49C"/>
<path d="M99.0674 105.782C99.9015 104.258 100.609 102.498 99.5388 100.883C98.3602 99.1237 96.4019 100.883 95.2959 101.863C89.7836 106.144 85.4681 112.258 86.411 119.478C86.7374 122.871 87.9704 126.19 89.8743 128.984L88.7138 128.785C92.7573 125.828 97.0366 123.451 101.624 121.492L101.189 122.744C99.2306 118.698 97.7619 114.435 97.6349 109.954C97.6893 108.394 98.5597 107.124 99.0855 105.782H99.0674ZM99.2306 105.854C98.7591 107.215 97.9432 108.521 98.052 109.954C98.1064 111.369 98.6141 112.748 99.0493 114.108C100.155 117.102 101.588 119.986 103.165 122.689C100.699 123.796 98.2696 125.084 95.8398 126.408C93.4464 127.696 91.1073 129.057 88.9314 130.599C86.7555 127.297 85.3593 123.506 85.1055 119.587C84.8697 115.941 85.6494 112.24 87.4627 109.083C89.294 105.89 92.2134 103.641 94.9876 101.5C96.0212 100.756 97.2179 99.6136 98.6322 99.9038C99.9921 100.394 100.355 102.099 100.246 103.387C100.101 104.312 99.5388 105.02 99.2306 105.854Z" fill="#080507"/>
<path d="M120.028 171.743C119.266 172.995 116.438 177.439 108.641 182.247C108.641 182.247 96.7098 189.594 82.766 190.81C76.3472 191.372 73.1559 191.644 71.3245 191.535C70.6718 191.499 68.4415 191.354 65.5947 191.898C63.7089 192.261 61.9138 192.624 60.5539 193.948C59.2302 195.236 59.067 196.687 58.5593 198.683C57.9247 201.204 57.9066 199.971 54.5702 208.134C51.3064 216.135 51.7597 216.207 50.5811 217.586C50.1096 218.13 45.359 223.464 40.4995 221.686C37.689 220.652 35.7851 217.55 35.4043 213.958C35.6581 212.398 36.0571 210.184 36.7098 207.554C38.3599 201.005 42.4034 184.986 54.7153 174.791C59.8286 170.564 68.9854 168.206 87.3173 163.507C95.2411 161.475 100.917 160.477 107.843 161.04C114.353 161.566 119.575 163.271 123.02 164.668C122.548 166.482 121.678 169.022 120.028 171.761V171.743Z" fill="#AA816A" stroke="#080507" stroke-miterlimit="10"/>
<path d="M261.805 183.952C263.437 183.571 268.097 182.737 273.229 184.968C278.161 187.109 280.59 190.791 281.769 192.642C283.546 195.436 286.084 199.39 284.815 203.853C284.616 204.542 283.655 208.207 280.264 209.785C278.142 210.765 275.55 210.33 269.566 207.119C265.704 205.05 260.3 201.731 254.389 196.56C250.763 192.932 244.96 187.399 237.326 181.231C226.628 172.578 222.458 170.872 213.609 162.999C201.66 152.368 195.568 146.944 196.112 139.561C196.71 131.47 205.123 123.487 213.102 123.215C222.966 122.871 230.436 134.372 236.093 143.098C239.811 148.849 239.43 150.209 245.069 158.863C248.188 163.652 250.074 165.974 254.752 172.959C257.816 177.548 260.246 181.376 261.841 183.952H261.805Z" fill="#AA816A" stroke="#080507" stroke-miterlimit="10"/>
<path d="M191.053 69.481C185.196 71.4584 186.52 75.6672 174.988 87.7492C169.802 93.1916 159.829 103.641 144.797 109.809C137.526 112.784 126.719 115.723 116.547 117.374C111.398 118.208 105.668 118.825 99.0675 122.526C93.5553 125.61 89.7475 129.528 88.6777 130.671C85.7221 133.81 85.2507 135.243 82.3314 139.125C80.6269 141.375 75.985 147.543 69.947 151.987C67.6079 153.693 62.2044 155.579 51.4701 159.498C42.8209 162.654 41.9506 162.745 39.7022 164.269C35.024 167.48 35.4773 169.348 28.986 176.46C22.2044 183.88 19.5027 184.224 18.2697 188.651C17.0549 192.968 17.8889 198.955 21.3704 201.096C26.248 204.089 34.3713 198.338 38.1791 194.275C41.7149 190.501 40.1736 187.453 43.8545 184.134C46.9551 181.34 50.6541 180.632 53.9361 180.034C59.6115 179.018 63.9814 179.743 67.7348 180.306C80.1736 182.174 86.393 183.1 90.3096 182.882C96.0394 182.573 104.308 180.052 114.154 169.276C124.272 170.274 132.612 170.836 138.415 171.163C179.34 173.521 192.794 170.02 197.998 168.496C206.284 166.065 212.649 162.999 216.475 160.985C243.292 161.185 270.128 161.384 296.946 161.584C297.653 161.257 304.689 157.883 304.979 152.441C305.305 146.182 296.42 141.738 290.437 140.722C281.37 139.18 274.335 144.731 272.957 145.874C267.427 144.259 240.953 128.44 241.515 121.437C243.782 92.9739 208.515 63.6214 191.071 69.481H191.053Z" fill="#D8B49C" stroke="#080507" stroke-miterlimit="10"/>
<path d="M276.275 91.2686C273.302 96.6384 267.354 96.8743 259.285 99.668C249.748 102.97 242.313 103.804 235.623 104.566C230.455 105.147 225.197 105.509 219.993 105.038C217.889 104.838 215.822 104.494 213.755 104.076C212.721 103.877 211.688 103.659 210.654 103.441C210.129 103.333 208.678 102.679 208.569 103.55C208.352 105.219 207.953 106.87 207.372 108.466C206.883 109.791 206.393 111.315 205.595 112.494C202.422 117.247 194.263 125.755 185.469 123.197C170.002 118.698 174.752 97.4003 177.236 86.0984C179.322 76.5923 181.425 66.9412 188.37 56.8003C192.105 51.3397 199.866 39.9652 214.517 35.4843C218.433 34.287 229.421 30.949 240.627 36.4458C243.129 37.6794 245.432 39.2577 247.517 41.1081C249.548 42.9222 251.343 44.7908 252.54 47.2942C254.571 51.5574 256.692 54.5145 260.609 57.2356C263.329 59.1405 265.033 59.6847 269.476 61.1723C272.667 62.2426 275.169 62.6962 278.288 64.0205C281.189 65.2541 284.127 66.5058 285.577 69.1181C288.932 75.1592 281.77 81.3816 276.294 91.2686H276.275Z" fill="#D8B49C"/>
<path d="M276.347 91.323C272.757 97.5092 264.652 97.5454 258.668 100.031C252.304 102.226 245.686 103.586 239.013 104.367C232.376 105.201 225.613 106.036 218.886 105.183C217.254 104.947 212.957 104.33 211.397 103.967C210.69 103.949 209.258 103.242 208.968 103.586L208.877 104.185C208.061 110.643 204.217 116.231 199.067 120.131C196.366 122.181 193.192 123.868 189.657 124.122C182.494 124.703 176.021 119.007 174.734 112.113C173.174 105.401 174.153 98.5069 175.35 91.8672C176.71 85.2638 177.961 78.6604 180.046 72.184C185.414 56.3648 196.492 40.8541 212.775 35.1214C230.654 28.645 247.789 34.0148 255.967 51.757C261.842 60.6099 273.428 60.5555 281.987 65.3629C293.682 72.0933 279.938 83.7037 276.366 91.3049L276.347 91.323ZM276.184 91.2323C279.412 83.8307 293.065 72.184 281.624 65.9797C272.739 61.39 260.953 61.6258 254.752 52.6459C252.667 50.0154 251.742 46.6411 249.457 44.2102C240.572 33.9967 225.631 32.0193 213.374 36.8267C197.671 42.3779 186.774 57.3263 181.443 72.6375C179.357 78.9507 178.052 85.5722 176.656 92.1031C175.441 98.5795 174.444 105.364 175.894 111.841C177.091 118.299 182.948 123.542 189.602 123.07C192.83 122.871 195.876 121.31 198.487 119.351C203.473 115.614 207.209 110.335 208.097 104.058C208.152 101.772 210.237 103.079 211.542 103.242C213.065 103.623 217.327 104.294 218.94 104.548C232.141 105.782 245.921 103.695 258.578 99.7587C264.543 97.3096 272.576 97.3459 276.184 91.2323Z" fill="#080507"/>
<path d="M234.263 63.8028C231.416 65.0182 230.781 68.9367 231.543 70.7146C232.304 72.4924 232.703 67.0319 235.532 65.8164C238.361 64.601 242.604 68.0841 241.842 66.2881C241.08 64.4921 237.091 62.5692 234.245 63.7846L234.263 63.8028Z" fill="#080507"/>
<path d="M164.506 112.566C167.444 118.535 159.429 128.132 153.156 132.83C146.138 138.109 138.994 138.98 130.635 140.014C123.074 140.957 110.418 142.518 108.06 137.438C106.773 134.662 109.783 130.399 113.047 125.628C114.987 122.78 116.202 120.984 118.396 119.533C122.258 116.993 123.437 117.483 131.342 115.251C141.297 112.439 148.151 108.43 152.684 107.559C156.746 106.779 162.639 108.757 164.488 112.548L164.506 112.566Z" fill="#FFEADE"/>
<path d="M199.847 58.1427C204.09 58.0701 207.444 65.3085 208.442 70.1885C209.566 75.6671 208.133 80.0392 206.465 85.1368C204.942 89.7629 202.422 97.4729 198.85 97.4548C196.909 97.4548 195.259 94.5522 193.392 91.3593C192.286 89.4726 191.579 88.2753 191.343 86.6244C190.926 83.7037 191.524 83.1595 192.394 78.0073C193.482 71.4946 193.029 66.4695 193.754 63.6032C194.407 61.0453 197.145 58.1971 199.847 58.1427Z" fill="#FFEADE"/>
<path d="M98.886 103.369C98.9766 104.983 98.1244 105.691 97.0365 108.267C96.2386 110.154 96.5469 110.117 96.1117 110.716C94.3166 113.147 89.4571 113.074 88.7862 111.623C88.6956 111.423 88.6049 111.024 89.711 109.174C90.4363 107.959 91.4154 106.562 96.5106 102.262C96.9458 101.899 97.6167 101.337 98.1607 101.591C98.7953 101.881 98.8678 103.133 98.886 103.369Z" fill="#FFEADE" stroke="#FFEADE" stroke-width="0.75" stroke-miterlimit="10"/>
<path d="M205.414 113.383C207.427 109.301 207.989 104.747 208.642 100.303C210.4 86.7695 209.204 73.2361 208.569 59.6665C211.887 75.8303 213.791 98.5976 205.414 113.383Z" fill="#080507"/>
<path d="M235.187 139.651C250.672 139.234 229.802 155.416 224.979 150.645C215.169 140.921 216.293 135.37 216.112 128.785C215.695 113.292 235.405 106.417 236.728 109.646C244.906 129.819 227.68 139.833 235.205 139.633L235.187 139.651Z" fill="#FFEADE" stroke="#FFEADE" stroke-miterlimit="10"/>
<path d="M303.293 95.5862L283.946 132.232L248.152 107.233L276.348 76.1025L303.293 95.5862Z" fill="#EDEEEF" stroke="#0C0806" stroke-width="0.5" stroke-miterlimit="10"/>
<path d="M275.587 76.8463L281.951 96.8561L248.152 107.233" fill="#EDEEEF"/>
<path d="M275.587 76.8463L281.951 96.8561L248.152 107.233" stroke="#0C0806" stroke-width="0.5" stroke-miterlimit="10"/>
<path d="M237.472 94.6791C242.096 94.4796 243.891 94.7698 249.258 95.6043C254.625 96.4388 257.816 95.7132 263.111 95.0057C268.297 94.3163 273.664 92.0668 275.731 90.5429C275.731 90.5429 279.503 86.8058 280.156 85.7173C281.824 82.9599 285.142 77.3179 283.347 77.0277C283.347 77.0277 280.971 78.6967 279.485 78.2613C276.602 77.4268 273.719 76.6467 273.356 76.3927C267.735 72.2565 233.102 94.8605 237.472 94.661V94.6791Z" fill="#D8B49C"/>
<path d="M274.209 77.2091C276.185 79.7852 280.029 80.7104 283.475 79.3317C286.684 78.0618 287.772 74.8326 287.065 71.6035C286.43 68.719 283.094 66.2155 280.519 65.1815C275.424 63.1497 272.903 68.8097 272.867 72.9822C272.867 74.6694 273.357 76.0844 274.209 77.191V77.2091Z" fill="#080507"/>
<path d="M284.653 80.2569C275.079 99.7587 248.914 100.103 231.09 93.3548C248.678 99.033 273.991 98.3981 283.003 79.4949C283.492 78.4065 285.179 79.1684 284.653 80.2569Z" fill="#080507"/>
<path d="M165.523 260.327C253.148 260.327 324.182 255.657 324.182 249.896C324.182 244.135 253.148 239.464 165.523 239.464C77.8989 239.464 6.86523 244.135 6.86523 249.896C6.86523 255.657 77.8989 260.327 165.523 260.327Z" fill="#20445B"/>
</svg>
