<svg width="995" height="236" viewBox="0 0 995 236" fill="none" xmlns="http://www.w3.org/2000/svg">
<path d="M44.0001 16.5005C49.5979 101.947 -107 26.0001 140 27.0004C387 28.0006 300.5 213 512 213C784 273 838.001 109.5 909.5 38.001C1015.5 -67.9999 989.533 101.091 987 38.001" stroke="#20445B" stroke-width="5" stroke-miterlimit="16" stroke-dasharray="10 20"/>
<path d="M690.832 197.474C693.799 195.6 698.163 198.97 701.741 195.248C705.312 191.537 694.53 179.097 684.618 183.85C674.707 188.604 677.912 206.214 682.977 204.824C687.364 203.62 687.865 199.346 690.832 197.474Z" fill="#20445B"/>
<path d="M680.414 178.395C681.81 180.898 681.416 183.778 679.531 184.832C677.648 185.883 674.989 184.706 673.59 182.205C672.194 179.703 672.587 176.82 674.471 175.769C676.354 174.718 679.018 175.893 680.414 178.395Z" fill="#20445B"/>
<path d="M675.02 187.554C676.691 189.235 677.016 191.617 675.752 192.873C674.486 194.13 672.107 193.786 670.437 192.105C668.768 190.424 668.44 188.043 669.704 186.786C670.972 185.531 673.349 185.874 675.02 187.554Z" fill="#20445B"/>
<path d="M683.574 177.114C684.445 179.844 686.816 181.527 688.873 180.871C690.927 180.216 691.889 177.472 691.02 174.741C690.148 172.011 687.778 170.328 685.721 170.984C683.664 171.64 682.703 174.384 683.574 177.114Z" fill="#20445B"/>
<path d="M694.017 179.139C694.282 181.494 695.935 183.239 697.706 183.04C699.477 182.841 700.699 180.769 700.435 178.414C700.168 176.061 698.517 174.314 696.746 174.514C694.973 174.714 693.75 176.786 694.017 179.139Z" fill="#20445B"/>
<path d="M789.637 137.52C792.096 137.021 794.157 140.383 797.495 138.804C800.825 137.232 796.78 126.175 788.946 126.834C781.113 127.492 778.779 140.079 782.519 140.437C785.756 140.747 787.178 138.017 789.637 137.52Z" fill="#20445B"/>
<path d="M787.522 122.119C787.819 124.146 786.824 125.971 785.296 126.197C783.77 126.421 782.291 124.959 781.992 122.931C781.695 120.904 782.69 119.077 784.216 118.853C785.743 118.629 787.225 120.091 787.522 122.119Z" fill="#20445B"/>
<path d="M781.588 126.87C782.278 128.418 781.89 130.093 780.726 130.612C779.56 131.13 778.058 130.295 777.368 128.747C776.68 127.199 777.066 125.524 778.23 125.006C779.396 124.489 780.899 125.322 781.588 126.87Z" fill="#20445B"/>
<path d="M789.96 122.065C789.849 124.111 791.005 125.839 792.547 125.923C794.087 126.008 795.427 124.418 795.54 122.371C795.652 120.325 794.495 118.597 792.953 118.513C791.411 118.429 790.071 120.019 789.96 122.065Z" fill="#20445B"/>
<path d="M796.426 126.073C796.004 127.715 796.666 129.302 797.901 129.618C799.135 129.935 800.479 128.861 800.9 127.22C801.32 125.579 800.66 123.992 799.426 123.675C798.19 123.358 796.846 124.432 796.426 126.073Z" fill="#20445B"/>
<path d="M224.742 86.2927C228.057 85.1437 231.539 89.4191 235.871 86.6095C240.193 83.8095 232.528 69.2407 221.794 71.6118C211.061 73.9829 210.171 91.8602 215.42 91.6606C219.965 91.4874 221.426 87.4393 224.742 86.2927Z" fill="#20445B"/>
<path d="M218.943 65.3425C219.732 68.0971 218.693 70.8118 216.617 71.4092C214.544 72.0036 212.222 70.2521 211.43 67.498C210.641 64.7434 211.68 62.0263 213.753 61.4318C215.827 60.8374 218.153 62.5878 218.943 65.3425Z" fill="#20445B"/>
<path d="M211.604 73.0323C212.848 75.0491 212.623 77.4426 211.106 78.3779C209.587 79.3138 207.349 78.4365 206.105 76.4197C204.863 74.4024 205.086 72.0094 206.603 71.0741C208.123 70.1406 210.36 71.0155 211.604 73.0323Z" fill="#20445B"/>
<path d="M222.311 64.8142C222.538 67.6708 224.463 69.8498 226.615 69.6794C228.765 69.5095 230.326 67.0565 230.102 64.1993C229.875 61.3427 227.95 59.1638 225.798 59.3342C223.646 59.5046 222.084 61.9576 222.311 64.8142Z" fill="#20445B"/>
<path d="M232.019 69.1652C231.74 71.5184 232.952 73.5943 234.722 73.8035C236.492 74.0127 238.154 72.274 238.433 69.9208C238.709 67.5681 237.499 65.4917 235.729 65.2825C233.957 65.0739 232.295 66.8125 232.019 69.1652Z" fill="#20445B"/>
<path d="M311.515 163.104C313.944 165.636 311.516 170.586 315.879 173.347C320.229 176.102 330.26 163.049 323.619 154.289C316.978 145.53 300.366 152.195 302.741 156.879C304.799 160.936 309.087 160.572 311.515 163.104Z" fill="#20445B"/>
<path d="M328.122 149.078C325.95 150.947 323.049 151.137 321.639 149.502C320.232 147.867 320.853 145.026 323.024 143.155C325.196 141.286 328.099 141.094 329.506 142.73C330.913 144.365 330.295 147.21 328.122 149.078Z" fill="#20445B"/>
<path d="M318.069 145.626C316.757 147.6 314.488 148.395 313.005 147.408C311.519 146.419 311.381 144.02 312.693 142.047C314.007 140.075 316.274 139.277 317.757 140.265C319.241 141.255 319.381 143.653 318.069 145.626Z" fill="#20445B"/>
<path d="M330.01 151.918C327.51 153.318 326.335 155.977 327.39 157.861C328.443 159.743 331.324 160.136 333.826 158.738C336.326 157.338 337.501 154.679 336.446 152.795C335.392 150.911 332.511 150.518 330.01 151.918Z" fill="#20445B"/>
<path d="M330.116 162.555C327.861 163.286 326.482 165.255 327.032 166.95C327.582 168.645 329.856 169.428 332.111 168.698C334.363 167.966 335.744 165.998 335.194 164.303C334.643 162.606 332.369 161.823 330.116 162.555Z" fill="#20445B"/>
<path d="M778.881 226.844C780.969 227.898 780.538 231.548 783.893 232.318C787.239 233.088 790.656 222.659 784.541 218.621C778.426 214.583 769.455 222.452 771.986 224.872C774.178 226.967 776.794 225.789 778.881 226.844Z" fill="#20445B"/>
<path d="M786.219 214.347C785.267 216.003 783.485 216.765 782.236 216.049C780.99 215.332 780.751 213.408 781.702 211.751C782.654 210.095 784.437 209.332 785.684 210.048C786.93 210.765 787.172 212.691 786.219 214.347Z" fill="#20445B"/>
<path d="M779.133 214.402C778.745 215.933 777.495 216.936 776.343 216.644C775.19 216.351 774.572 214.873 774.96 213.341C775.35 211.811 776.599 210.807 777.75 211.099C778.902 211.394 779.521 212.871 779.133 214.402Z" fill="#20445B"/>
<path d="M788.035 215.715C786.773 217.149 786.623 219.081 787.703 220.032C788.782 220.983 790.681 220.592 791.944 219.159C793.207 217.725 793.357 215.792 792.276 214.841C791.196 213.89 789.298 214.281 788.035 215.715Z" fill="#20445B"/>
<path d="M790.456 222.38C789.201 223.339 788.769 224.882 789.49 225.827C790.212 226.771 791.815 226.76 793.071 225.802C794.325 224.842 794.758 223.3 794.037 222.355C793.314 221.41 791.711 221.421 790.456 222.38Z" fill="#20445B"/>
<path d="M310.66 46.0782C312.998 46.1228 314.192 49.5994 317.549 48.8393C320.898 48.0828 319.457 37.2029 312.196 36.2145C304.935 35.2262 300.262 46.206 303.591 47.2897C306.475 48.228 308.321 46.0321 310.66 46.0782Z" fill="#20445B"/>
<path d="M311.856 31.6355C311.716 33.5407 310.44 34.9998 309.004 34.8956C307.57 34.79 306.521 33.1596 306.66 31.2542C306.8 29.349 308.076 27.8883 309.51 27.9939C310.944 28.0995 311.996 29.7304 311.856 31.6355Z" fill="#20445B"/>
<path d="M305.494 34.7567C305.808 36.305 305.116 37.7506 303.951 37.9864C302.785 38.222 301.587 37.1579 301.273 35.6096C300.961 34.0615 301.652 32.6158 302.816 32.38C303.982 32.146 305.18 33.2084 305.494 34.7567Z" fill="#20445B"/>
<path d="M314.085 32.081C313.569 33.9204 314.272 35.7268 315.657 36.1159C317.042 36.5047 318.583 35.3295 319.101 33.4903C319.617 31.6509 318.914 29.8445 317.528 29.4555C316.143 29.0664 314.601 30.2416 314.085 32.081Z" fill="#20445B"/>
<path d="M319.156 37.0385C318.44 38.4465 318.721 40.0245 319.78 40.5629C320.839 41.1014 322.279 40.3964 322.995 38.9883C323.71 37.58 323.431 36.0023 322.372 35.4638C321.311 34.9252 319.871 35.6302 319.156 37.0385Z" fill="#20445B"/>
</svg>
